<svg width="249" height="483" viewBox="0 0 249 483" fill="none" xmlns="http://www.w3.org/2000/svg">
<g clip-path="url(#clip0_1634_6)">
<path d="M84.6445 187.899L90.8123 187.174L96.2545 180.643L109.316 158.512L131.447 162.503L134.35 178.466L146.685 185.722L136.889 214.385L98.7942 213.659L84.6445 187.899Z" fill="white" stroke="black" stroke-width="2" stroke-miterlimit="10" stroke-linecap="round"/>
<path d="M92.6917 90.8726L122.156 88.7402L164.015 106.787L164.305 127.382L157.526 172.369L138.002 173.806L106.462 174.88L74.3386 167.972L67.043 108.125L92.6917 90.8726Z" fill="white" stroke="black" stroke-width="2" stroke-miterlimit="10" stroke-linecap="round"/>
<path d="M93.4961 109.509L100.581 107.147L127.65 108.782L126.56 128.403L109.12 128.221L94.0411 130.583L93.4961 109.509Z" fill="white" stroke="black" stroke-width="1.5" stroke-miterlimit="10" stroke-linecap="round"/>
<path d="M168.666 133.671L157.277 131.31L144.105 131.491L143.281 111.871L163.727 110.236L169.078 112.598L168.666 133.671Z" fill="white" stroke="black" stroke-width="1.5" stroke-miterlimit="10" stroke-linecap="round"/>
<path d="M106.73 118.207C106.73 116.552 108.072 115.21 109.728 115.21C111.383 115.21 112.725 116.552 112.725 118.207C112.725 119.863 111.383 121.205 109.728 121.205C108.072 121.205 106.73 119.863 106.73 118.207Z" fill="#050505"/>
<path d="M151.238 120.931C151.238 119.276 152.58 117.934 154.236 117.934C155.891 117.934 157.233 119.276 157.233 120.931C157.233 122.587 155.891 123.929 154.236 123.929C152.58 123.929 151.238 122.587 151.238 120.931Z" fill="#050505"/>
<path d="M129.071 98.318L91.3874 103.171C91.3874 103.171 75.5029 134.69 73.135 135.656C69.1505 137.281 69.691 112.021 69.691 112.021L68.5491 105.455C68.5491 105.455 60.678 93.3924 77.8271 79.0482C94.9763 64.704 117.518 63.8655 121.464 61.1946C122.116 60.7537 134.022 55 134.022 55L126.078 66.5093L152.628 56.5176L161.763 61.0853L153.769 65.3674L152.057 69.9351L175.751 72.7898L184.601 82.2106L176.893 81.6397L186.028 93.9152L187.456 102.194L173.753 98.4829L159.479 103.621L129.071 98.318Z" fill="white" stroke="black" stroke-width="1.5" stroke-miterlimit="10" stroke-linecap="round"/>
<path d="M101.624 107.37L91.6322 107.87L86.1367 100.376L103.123 96.8789L129.601 101.375L127.602 107.37H101.624Z" fill="white" stroke="black" stroke-width="1.5" stroke-miterlimit="10" stroke-linecap="round"/>
<path d="M143.096 110.867L141.598 104.372L153.588 100.875L168.575 102.873L168.076 112.865L162.58 109.368L143.096 110.867Z" fill="white" stroke="black" stroke-width="1.5" stroke-miterlimit="10" stroke-linecap="round"/>
<path d="M119.208 398.897L107.259 392.669L84.1569 396.228L69.8178 387.331L53.8854 397.117L49.9023 425.586L82.962 426.921L125.183 413.131L119.208 398.897Z" fill="#707070" stroke="black" stroke-width="2" stroke-miterlimit="10" stroke-linecap="round"/>
<path d="M139.924 399.341L151.873 393.113L174.975 396.672L189.314 387.775L205.247 397.562L209.23 426.031L176.17 427.365L133.949 413.575L139.924 399.341Z" fill="#707070" stroke="black" stroke-width="2" stroke-miterlimit="10" stroke-linecap="round"/>
<path d="M86.0098 283.035L80.0351 327.456L77.247 386.328L75.4766 391.868L79.4597 400.967L108.934 404.178L119.689 399.361V388.122L128.85 296.603L86.0098 283.035Z" fill="#C06200" stroke="black" stroke-width="2" stroke-miterlimit="10" stroke-linecap="round"/>
<path d="M169.301 285.711L175.276 330.132L178.064 389.004L179.834 394.544L175.851 403.642L146.376 406.854L135.622 402.037V390.798L126.461 299.279L169.301 285.711Z" fill="#C06200" stroke="black" stroke-width="2" stroke-miterlimit="10" stroke-linecap="round"/>
<path d="M184.473 281.045L163.426 217.022L168 210.321L181 200.5L220.751 269.755L236.168 291.764L226.768 300.782L218.105 289.745L222.697 304.608L211.599 306.743L206.021 291.595L206.173 307.644L193.008 308.162L193.086 290.022L184.926 303.822L177.793 291.388L184.473 281.045Z" fill="white" stroke="black" stroke-width="2" stroke-miterlimit="10" stroke-linecap="round"/>
<path d="M51.2498 138.33L87.8287 195.408L85.0528 202.938L70.8333 221.903L18.7325 157.583L-1.81504 139.841L5.08132 128.961L16.2936 137.644L8.08835 124.326L18.3667 119.711L26.4144 132.057L23.4278 117.594L36.1262 114.068L40.6038 131.628L45.0913 116.409L55.1631 126.794L51.2498 138.33Z" fill="white" stroke="black" stroke-width="2" stroke-miterlimit="10" stroke-linecap="round"/>
<path d="M82.4749 236.99C81.8134 224.389 68.4961 221.5 68.4961 221.5V207C68.4961 207 68.6216 193.151 74.0886 191.5C80.2237 189.647 87.7464 185.711 87.7464 185.711C87.7464 185.711 106.191 200.691 116.544 201.096C121.034 201.271 144.182 186.262 144.182 186.262C144.182 186.262 162.909 185.868 170.199 188.239C175.35 189.913 183.778 199.138 183.778 199.138L180.496 221.5C180.496 221.5 164.156 218.798 165.237 227.973C167.069 243.539 171.262 286.993 171.262 286.993C171.262 286.993 149.918 301.897 133.799 300.76C122.511 299.964 82.7862 288.625 82.7862 288.625C82.7862 288.625 83.2284 251.344 82.4749 236.99Z" fill="#0019A8" stroke="black" stroke-width="2" stroke-miterlimit="10" stroke-linecap="round"/>
<path d="M123.109 154.865L133.496 159.5L142.924 154.259" stroke="black" stroke-width="2" stroke-miterlimit="10" stroke-linecap="round"/>
</g>
<defs>
<clipPath id="clip0_1634_6">
<rect width="248.592" height="482.671" fill="white"/>
</clipPath>
</defs>
</svg>
