<svg width="631" height="483" viewBox="0 0 631 483" fill="none" xmlns="http://www.w3.org/2000/svg">
<g clip-path="url(#clip0_1690_2)">
<path d="M201.434 191.777C205.598 187.569 220.956 178.277 220.956 178.277L231.857 188.4L226.686 194.943L263.507 146.711L288.596 159.299L239.524 236.29L198.324 201.142C198.324 201.142 198.472 194.769 201.434 191.777Z" fill="white" stroke="black" stroke-width="2" stroke-miterlimit="10" stroke-linecap="round"/>
<path d="M257.734 151.988L260.407 143.888L261.986 138.741L265.62 99.8945L281.725 101.076L278.053 134.099L293.494 106.107L309.83 115.559L290.366 144.771L310.524 126.067L322 144.859L278.019 174.318" fill="#FEFFFF"/>
<path d="M257.734 151.988L260.407 143.888L261.986 138.741L265.62 99.8945L281.725 101.076L278.053 134.099L293.494 106.107L309.83 115.559L290.366 144.771L310.524 126.067L322 144.859L278.019 174.318" stroke="black" stroke-width="2" stroke-miterlimit="10" stroke-linecap="round"/>
<path d="M255.811 169.843L225.175 146.603L235.482 134.326L261.66 153.159" fill="white"/>
<path d="M255.811 169.843L225.175 146.603L235.482 134.326L261.66 153.159" stroke="black" stroke-width="2" stroke-miterlimit="10" stroke-linecap="round"/>
<path d="M121.675 198.589L80.4755 233.737L31.4038 156.746L56.4925 144.158L93.3135 192.39L88.1423 185.848L99.0433 175.724C99.0433 175.724 114.401 185.017 118.566 189.224C121.528 192.216 121.675 198.589 121.675 198.589Z" fill="white" stroke="black" stroke-width="2" stroke-miterlimit="10" stroke-linecap="round"/>
<path d="M41.9807 171.763L-2 142.305L9.47577 123.512L29.634 142.217L10.1701 113.005L26.5064 103.553L41.9465 131.544L38.2752 98.5211L54.3795 97.3398L58.0136 136.186L59.5933 141.333L62.2661 149.433" fill="#FEFFFF"/>
<path d="M41.9807 171.763L-2 142.305L9.47577 123.512L29.634 142.217L10.1701 113.005L26.5064 103.553L41.9465 131.544L38.2752 98.5211L54.3795 97.3398L58.0136 136.186L59.5933 141.333L62.2661 149.433" stroke="black" stroke-width="2" stroke-miterlimit="10" stroke-linecap="round"/>
<path d="M58.3384 150.604L84.5171 131.771L94.8239 144.049L64.1878 167.289" fill="white"/>
<path d="M58.3384 150.604L84.5171 131.771L94.8239 144.049L64.1878 167.289" stroke="black" stroke-width="2" stroke-miterlimit="10" stroke-linecap="round"/>
<path d="M127.25 166.911L133.094 166.224L138.25 160.036L150.624 139.068L171.592 142.849L174.342 157.974L186.029 164.849L176.748 192.004L140.656 191.316L127.25 166.911Z" fill="white" stroke="black" stroke-width="2" stroke-miterlimit="10" stroke-linecap="round"/>
<path d="M134.876 74.9871L162.792 72.9668L202.45 90.0646L202.725 109.577L196.302 152.199L177.805 153.561L147.922 154.578L117.488 148.033L110.576 91.3323L134.876 74.9871Z" fill="white" stroke="black" stroke-width="2" stroke-miterlimit="10" stroke-linecap="round"/>
<path d="M135.646 92.6457L142.359 90.4082L168.004 91.9573L166.971 110.546L150.448 110.374L136.162 112.611L135.646 92.6457Z" fill="white" stroke="black" stroke-width="1.5" stroke-miterlimit="10" stroke-linecap="round"/>
<path d="M206.857 115.533L196.067 113.296L183.586 113.468L182.806 94.8791L202.177 93.3301L207.247 95.5676L206.857 115.533Z" fill="white" stroke="black" stroke-width="1.5" stroke-miterlimit="10" stroke-linecap="round"/>
<path d="M148.178 100.883C148.178 99.3144 149.45 98.043 151.018 98.043C152.587 98.043 153.858 99.3144 153.858 100.883C153.858 102.451 152.587 103.723 151.018 103.723C149.45 103.723 148.178 102.451 148.178 100.883Z" fill="#050505"/>
<path d="M190.347 103.467C190.347 101.898 191.619 100.627 193.187 100.627C194.756 100.627 196.027 101.898 196.027 103.467C196.027 105.035 194.756 106.307 193.187 106.307C191.619 106.307 190.347 105.035 190.347 103.467Z" fill="#050505"/>
<path d="M169.347 82.0407L133.645 86.6387C133.645 86.6387 118.595 116.501 116.352 117.416C112.577 118.956 113.089 95.0233 113.089 95.0233L112.007 88.8025C112.007 88.8025 104.55 77.3741 120.797 63.784C137.045 50.1939 158.401 49.3994 162.141 46.869C162.758 46.4512 174.038 41 174.038 41L166.512 51.9043L191.665 42.4378L200.321 46.7654L192.747 50.8224L191.125 55.1499L213.574 57.8546L221.958 66.7802L214.655 66.2392L223.31 77.8695L224.663 85.7131L211.68 82.197L198.157 87.0655L169.347 82.0407Z" fill="white" stroke="black" stroke-width="1.5" stroke-miterlimit="10" stroke-linecap="round"/>
<path d="M143.341 90.6156L133.875 91.0889L128.668 83.989L144.761 80.6758L169.847 84.9357L167.954 90.6156H143.341Z" fill="white" stroke="black" stroke-width="1.5" stroke-miterlimit="10" stroke-linecap="round"/>
<path d="M182.627 93.9274L181.207 87.7742L192.566 84.4609L206.766 86.3542L206.293 95.8207L201.086 92.5074L182.627 93.9274Z" fill="white" stroke="black" stroke-width="1.5" stroke-miterlimit="10" stroke-linecap="round"/>
<path d="M165.662 380.303L125.661 393.368L94.3394 392.104L98.113 365.131L113.208 355.859L126.793 364.288L148.681 360.917L160.002 366.817L165.662 380.303Z" fill="#707070" stroke="black" stroke-width="2" stroke-miterlimit="10" stroke-linecap="round"/>
<path d="M179.624 367.237L190.946 361.337L212.833 364.708L226.418 356.279L241.513 365.551L245.287 392.523L213.965 393.788L173.964 380.723L179.624 367.237Z" fill="#707070" stroke="black" stroke-width="2" stroke-miterlimit="10" stroke-linecap="round"/>
<path d="M169.137 269.902L160.457 356.609V367.257L150.268 371.821L122.343 368.779L118.569 360.159L120.247 354.91L122.888 299.133L128.549 257.047L169.137 269.902Z" fill="#C06200" stroke="black" stroke-width="2" stroke-miterlimit="10" stroke-linecap="round"/>
<path d="M207.461 259.582L213.121 301.668L215.763 357.445L217.44 362.694L213.666 371.314L185.741 374.356L175.552 369.793V359.144L166.873 272.437L207.461 259.582Z" fill="#C06200" stroke="black" stroke-width="2" stroke-miterlimit="10" stroke-linecap="round"/>
<path d="M125.194 213.425C124.568 201.486 117.245 189.368 117.245 189.368L96.9927 174.865C96.9927 174.865 103.14 165.728 108.32 164.164C114.132 162.408 130.189 164.841 130.189 164.841C130.189 164.841 147.663 179.034 157.472 179.417C161.726 179.583 183.657 165.363 183.657 165.363C183.657 165.363 201.4 164.99 208.307 167.236C213.187 168.823 221.172 177.563 221.172 177.563L207.205 191.648C207.205 191.648 202.582 196.189 203.605 204.881C205.342 219.63 209.314 260.799 209.314 260.799C209.314 260.799 189.092 274.919 173.82 273.842C163.126 273.088 125.489 262.345 125.489 262.345C125.489 262.345 125.908 227.024 125.194 213.425Z" fill="#0019A8" stroke="black" stroke-width="2" stroke-miterlimit="10" stroke-linecap="round"/>
<path d="M175.449 136.071L172.641 142.248H163.094L161.45 135.614L182.47 135.039" fill="black"/>
<path d="M175.449 136.071L172.641 142.248H163.094L161.45 135.614L182.47 135.039" stroke="black" stroke-width="2" stroke-miterlimit="10" stroke-linecap="round"/>
<path d="M356.171 169.066L387.263 196.773L409.428 172.761L426.91 185.61L431.225 197.205L397.361 233.901L362.943 222.94L336.161 194.618" fill="white"/>
<path d="M356.171 169.066L387.263 196.773L409.428 172.761L426.91 185.61L431.225 197.205L397.361 233.901L362.943 222.94L336.161 194.618" stroke="black" stroke-width="2" stroke-miterlimit="10" stroke-linecap="round"/>
<path d="M600.353 194.618L573.57 222.94L539.153 233.901L505.289 197.205L509.604 185.61L527.085 172.761L549.25 196.773L580.343 169.066" fill="white"/>
<path d="M600.353 194.618L573.57 222.94L539.153 233.901L505.289 197.205L509.604 185.61L527.085 172.761L549.25 196.773L580.343 169.066" stroke="black" stroke-width="2" stroke-miterlimit="10" stroke-linecap="round"/>
<path d="M437.482 165.201L443.247 164.523L448.333 158.42L460.539 137.736L481.223 141.466L483.935 156.385L495.464 163.167L486.309 189.953L450.706 189.275L437.482 165.201Z" fill="white" stroke="black" stroke-width="2" stroke-miterlimit="10" stroke-linecap="round"/>
<path d="M445.005 74.5261L472.542 72.5332L511.661 89.3989L511.933 108.647L505.597 150.69L487.351 152.033L457.874 153.037L427.852 146.581L421.034 90.6494L445.005 74.5261Z" fill="white" stroke="black" stroke-width="2" stroke-miterlimit="10" stroke-linecap="round"/>
<path d="M445.763 91.9454L452.385 89.7383L477.682 91.2663L476.663 109.603L460.364 109.433L446.273 111.64L445.763 91.9454Z" fill="white" stroke="black" stroke-width="1.5" stroke-miterlimit="10" stroke-linecap="round"/>
<path d="M516.007 114.523L505.364 112.316L493.053 112.486L492.283 94.1491L511.391 92.6211L516.392 94.8282L516.007 114.523Z" fill="white" stroke="black" stroke-width="1.5" stroke-miterlimit="10" stroke-linecap="round"/>
<path d="M458.126 100.071C458.126 98.5237 459.381 97.2695 460.928 97.2695C462.475 97.2695 463.729 98.5237 463.729 100.071C463.729 101.618 462.475 102.872 460.928 102.872C459.381 102.872 458.126 101.618 458.126 100.071Z" fill="#050505"/>
<path d="M499.723 102.62C499.723 101.073 500.977 99.8184 502.525 99.8184C504.072 99.8184 505.326 101.073 505.326 102.62C505.326 104.167 504.072 105.421 502.525 105.421C500.977 105.421 499.723 104.167 499.723 102.62Z" fill="#050505"/>
<path d="M479.006 81.4837L443.789 86.0193C443.789 86.0193 428.944 115.476 426.731 116.379C423.007 117.898 423.512 94.2901 423.512 94.2901L422.445 88.1537C422.445 88.1537 415.089 76.8804 431.116 63.4747C447.143 50.0691 468.209 49.2854 471.898 46.7893C472.507 46.3772 483.634 41 483.634 41L476.21 51.7563L501.022 42.4183L509.56 46.6871L502.089 50.6891L500.488 54.9579L522.633 57.6259L530.904 66.4303L523.7 65.8967L532.238 77.369L533.572 85.1062L520.765 81.6378L507.425 86.4402L479.006 81.4837Z" fill="white" stroke="black" stroke-width="1.5" stroke-miterlimit="10" stroke-linecap="round"/>
<path d="M453.355 89.9416L444.017 90.4085L438.881 83.405L454.755 80.1367L479.501 84.3388L477.633 89.9416H453.355Z" fill="white" stroke="black" stroke-width="1.5" stroke-miterlimit="10" stroke-linecap="round"/>
<path d="M492.107 93.2091L490.706 87.1394L501.912 83.8711L515.919 85.7387L515.452 95.0767L510.316 91.8084L492.107 93.2091Z" fill="white" stroke="black" stroke-width="1.5" stroke-miterlimit="10" stroke-linecap="round"/>
<path d="M475.372 375.698L435.914 388.585L405.017 387.338L408.74 360.732L423.629 351.586L437.03 359.9L458.621 356.575L469.788 362.395L475.372 375.698Z" fill="#707070" stroke="black" stroke-width="2" stroke-miterlimit="10" stroke-linecap="round"/>
<path d="M489.146 362.809L500.313 356.989L521.904 360.314L535.304 352L550.194 361.146L553.917 387.752L523.02 388.999L483.562 376.112L489.146 362.809Z" fill="#707070" stroke="black" stroke-width="2" stroke-miterlimit="10" stroke-linecap="round"/>
<path d="M478.8 266.796L470.238 352.326V362.83L460.188 367.332L432.641 364.331L428.919 355.828L430.574 350.65L433.179 295.63L438.763 254.115L478.8 266.796Z" fill="#C06200" stroke="black" stroke-width="2" stroke-miterlimit="10" stroke-linecap="round"/>
<path d="M516.604 256.615L522.188 298.13L524.793 353.15L526.448 358.327L522.726 366.831L495.179 369.832L485.129 365.33V354.826L476.567 269.296L516.604 256.615Z" fill="#C06200" stroke="black" stroke-width="2" stroke-miterlimit="10" stroke-linecap="round"/>
<path d="M435.454 211.084C434.835 199.307 427.612 187.353 427.612 187.353L407.635 173.047C407.635 173.047 413.699 164.034 418.808 162.491C424.542 160.76 440.38 163.159 440.38 163.159C440.38 163.159 457.618 177.16 467.293 177.538C471.49 177.701 493.123 163.674 493.123 163.674C493.123 163.674 510.625 163.306 517.438 165.522C522.252 167.087 530.129 175.708 530.129 175.708L516.351 189.602C516.351 189.602 511.791 194.082 512.8 202.656C514.513 217.204 518.432 257.815 518.432 257.815C518.432 257.815 498.484 271.743 483.419 270.681C472.871 269.937 435.745 259.34 435.745 259.34C435.745 259.34 436.158 224.498 435.454 211.084Z" fill="#0019A8" stroke="black" stroke-width="2" stroke-miterlimit="10" stroke-linecap="round"/>
<path d="M491.953 133.762L471.218 134.329L472.839 140.873H482.257L485.027 134.779" fill="black"/>
<path d="M491.953 133.762L471.218 134.329L472.839 140.873H482.257L485.027 134.779" stroke="black" stroke-width="2" stroke-miterlimit="10" stroke-linecap="round"/>
<path d="M329.014 161.526L324.704 155.677L335.479 150.443L356.721 152.906L362.877 158.755L355.797 163.065L351.179 175.995L351.795 186.154L374.576 208.934L384.735 228.637L382.888 241.566L376.731 254.804L350.564 259.729L321.318 257.267L305.002 248.955L301 227.098L307.773 212.629L325.012 185.846L331.169 176.303L329.014 161.526Z" fill="#FFD095" stroke="black" stroke-width="2" stroke-miterlimit="10" stroke-linecap="round"/>
<path d="M328.043 245.402L336.315 244.532L348.244 238.785L351.64 234.257L351.988 232.342L342.933 225.55L336.664 223.025L334.443 218.366L346.633 205.741L353.382 205.088" stroke="#18AE00" stroke-width="2" stroke-miterlimit="10" stroke-linecap="round"/>
<path d="M337.018 252.951L334.863 194.152" stroke="#18AE00" stroke-width="2" stroke-miterlimit="10" stroke-linecap="round"/>
<path d="M348.1 248.332L346.253 193.535" stroke="#18AE00" stroke-width="2" stroke-miterlimit="10" stroke-linecap="round"/>
<path d="M323.539 190.231L341.394 194.54L350.322 193.001L349.706 182.842L341.394 181.919L329.388 179.764L322 183.15L323.539 190.231Z" fill="white" stroke="black" stroke-width="2" stroke-miterlimit="10" stroke-linecap="round"/>
<path d="M323.539 179.996L341.394 184.306L350.322 182.767L349.706 172.608L341.394 171.684L329.388 169.529L322 172.916L323.539 179.996Z" fill="white" stroke="black" stroke-width="2" stroke-miterlimit="10" stroke-linecap="round"/>
<path d="M327.467 170.147L345.323 174.456L354.25 172.917L353.635 162.758L345.323 161.835L333.317 159.68L325.928 163.066L327.467 170.147Z" fill="white" stroke="black" stroke-width="2" stroke-miterlimit="10" stroke-linecap="round"/>
<path d="M365.648 177.607L362.569 164.678L350.563 165.601L346.561 171.143L345.638 183.149L351.179 185.919L355.181 177.299" fill="white"/>
<path d="M365.648 177.607L362.569 164.678L350.563 165.601L346.561 171.143L345.638 183.149L351.179 185.919L355.181 177.299" stroke="black" stroke-width="2" stroke-miterlimit="10" stroke-linecap="round"/>
<path d="M579.794 161.526L575.484 155.677L586.259 150.443L607.5 152.906L613.657 158.755L606.577 163.065L601.959 175.995L602.575 186.154L625.355 208.934L635.514 228.637L633.667 241.566L627.51 254.804L601.343 259.729L572.098 257.267L555.782 248.955L551.78 227.098L558.552 212.629L575.792 185.846L581.949 176.303L579.794 161.526Z" fill="#FFD095" stroke="black" stroke-width="2" stroke-miterlimit="10" stroke-linecap="round"/>
<path d="M604.161 205.088L597.413 205.741L585.223 218.366L587.443 223.025L593.713 225.55L602.768 232.342L602.42 234.257L599.024 238.785L587.095 244.532L578.823 245.402" stroke="#18AE00" stroke-width="2" stroke-miterlimit="10" stroke-linecap="round"/>
<path d="M587.798 252.951L585.644 194.152" stroke="#18AE00" stroke-width="2" stroke-miterlimit="10" stroke-linecap="round"/>
<path d="M597.033 193.535L598.88 248.332" stroke="#18AE00" stroke-width="2" stroke-miterlimit="10" stroke-linecap="round"/>
<path d="M612.975 190.23L595.12 194.54L586.192 193.001L586.808 182.842L595.12 181.919L607.126 179.764L614.514 183.15L612.975 190.23Z" fill="white" stroke="black" stroke-width="2" stroke-miterlimit="10" stroke-linecap="round"/>
<path d="M612.975 179.996L595.12 184.306L586.192 182.767L586.808 172.608L595.12 171.684L607.126 169.529L614.514 172.916L612.975 179.996Z" fill="white" stroke="black" stroke-width="2" stroke-miterlimit="10" stroke-linecap="round"/>
<path d="M609.046 170.147L591.191 174.456L582.264 172.917L582.879 162.758L591.191 161.835L603.197 159.68L610.586 163.066L609.046 170.147Z" fill="white" stroke="black" stroke-width="2" stroke-miterlimit="10" stroke-linecap="round"/>
<path d="M570.866 177.607L573.944 164.678L585.95 165.601L589.952 171.143L590.876 183.149L585.335 185.919L581.333 177.3" fill="white"/>
<path d="M570.866 177.607L573.944 164.678L585.95 165.601L589.952 171.143L590.876 183.149L585.335 185.919L581.333 177.3" stroke="black" stroke-width="2" stroke-miterlimit="10" stroke-linecap="round"/>
</g>
<defs>
<clipPath id="clip0_1690_2">
<rect width="631" height="483" fill="white"/>
</clipPath>
</defs>
</svg>
