<svg width="631" height="483" viewBox="0 0 631 483" fill="none" xmlns="http://www.w3.org/2000/svg">
<path d="M351.881 301L319 270.718L374.119 210L407 240.282L351.881 301Z" fill="#67F572" stroke="#45804D" stroke-width="2.5" stroke-miterlimit="10"/>
<path d="M373.76 313L334 292.515L371.24 219L411 239.485L373.76 313Z" fill="#67F572" stroke="#45804D" stroke-width="2.5" stroke-miterlimit="10"/>
<path d="M453.652 187.899L459.82 187.174L465.262 180.643L478.323 158.512L500.455 162.503L503.357 178.466L515.693 185.722L505.897 214.385L467.802 213.659L453.652 187.899Z" fill="white" stroke="black" stroke-width="2" stroke-miterlimit="10" stroke-linecap="round"/>
<path d="M461.696 90.8726L491.16 88.7402L533.019 106.787L533.309 127.382L526.529 172.369L507.006 173.806L475.466 174.88L443.342 167.972L436.047 108.125L461.696 90.8726Z" fill="white" stroke="black" stroke-width="2" stroke-miterlimit="10" stroke-linecap="round"/>
<path d="M462.504 109.509L469.589 107.147L496.657 108.782L495.567 128.403L478.127 128.221L463.049 130.583L462.504 109.509Z" fill="white" stroke="black" stroke-width="1.5" stroke-miterlimit="10" stroke-linecap="round"/>
<path d="M537.67 133.671L526.281 131.31L513.108 131.491L512.285 111.871L532.73 110.236L538.082 112.598L537.67 133.671Z" fill="white" stroke="black" stroke-width="1.5" stroke-miterlimit="10" stroke-linecap="round"/>
<path d="M475.734 118.207C475.734 116.552 477.076 115.21 478.732 115.21C480.387 115.21 481.729 116.552 481.729 118.207C481.729 119.863 480.387 121.205 478.732 121.205C477.076 121.205 475.734 119.863 475.734 118.207Z" fill="#050505"/>
<path d="M520.246 120.931C520.246 119.276 521.588 117.934 523.244 117.934C524.899 117.934 526.241 119.276 526.241 120.931C526.241 122.587 524.899 123.929 523.244 123.929C521.588 123.929 520.246 122.587 520.246 120.931Z" fill="#050505"/>
<path d="M498.078 98.318L460.395 103.171C460.395 103.171 444.511 134.69 442.143 135.656C438.158 137.281 438.699 112.021 438.699 112.021L437.557 105.455C437.557 105.455 429.686 93.3924 446.835 79.0482C463.984 64.704 486.525 63.8655 490.472 61.1946C491.124 60.7537 503.03 55 503.03 55L495.086 66.5093L521.635 56.5176L530.771 61.0853L522.777 65.3674L521.064 69.9351L544.759 72.7899L553.609 82.2106L545.901 81.6397L555.036 93.9152L556.464 102.194L542.761 98.4829L528.487 103.621L498.078 98.318Z" fill="white" stroke="black" stroke-width="1.5" stroke-miterlimit="10" stroke-linecap="round"/>
<path d="M470.632 107.37L460.64 107.87L455.145 100.376L472.13 96.8789L498.609 101.375L496.61 107.37H470.632Z" fill="white" stroke="black" stroke-width="1.5" stroke-miterlimit="10" stroke-linecap="round"/>
<path d="M512.1 110.867L510.602 104.372L522.592 100.875L537.579 102.873L537.08 112.865L531.584 109.368L512.1 110.867Z" fill="white" stroke="black" stroke-width="1.5" stroke-miterlimit="10" stroke-linecap="round"/>
<path d="M488.212 398.897L476.263 392.669L453.161 396.228L438.822 387.331L422.889 397.117L418.906 425.586L451.966 426.921L494.187 413.131L488.212 398.897Z" fill="#707070" stroke="black" stroke-width="2" stroke-miterlimit="10" stroke-linecap="round"/>
<path d="M508.932 399.341L520.881 393.113L543.983 396.672L558.322 387.775L574.254 397.562L578.237 426.031L545.178 427.365L502.957 413.575L508.932 399.341Z" fill="#707070" stroke="black" stroke-width="2" stroke-miterlimit="10" stroke-linecap="round"/>
<path d="M455.018 283.035L449.043 327.456L446.255 386.328L444.484 391.868L448.467 400.967L477.942 404.178L488.697 399.361V388.122L497.858 296.603L455.018 283.035Z" fill="#C06200" stroke="black" stroke-width="2" stroke-miterlimit="10" stroke-linecap="round"/>
<path d="M538.305 285.711L544.28 330.132L547.068 389.004L548.838 394.544L544.855 403.642L515.38 406.854L504.626 402.037V390.798L495.465 299.279L538.305 285.711Z" fill="#C06200" stroke="black" stroke-width="2" stroke-miterlimit="10" stroke-linecap="round"/>
<path d="M549.254 282.358L527.906 218.435L532.449 211.713L550.888 196.413L585.479 270.898L600.999 292.834L591.642 301.896L582.927 290.9L587.589 305.741L576.501 307.929L570.852 292.807L571.079 308.855L557.917 309.435L557.909 291.295L549.815 305.133L542.623 292.732L549.254 282.358Z" fill="white" stroke="black" stroke-width="2" stroke-miterlimit="10" stroke-linecap="round"/>
<path d="M451.479 236.99C450.817 224.389 443.089 211.599 443.089 211.599L437.5 207C437.5 207 437.625 193.151 443.093 191.5C449.228 189.647 456.75 185.711 456.75 185.711C456.75 185.711 475.195 200.691 485.548 201.096C490.038 201.271 513.186 186.262 513.186 186.262C513.186 186.262 531.913 185.868 539.203 188.239C544.354 189.913 552.782 199.138 552.782 199.138L538.04 214.005C538.04 214.005 533.16 218.798 534.24 227.973C536.073 243.539 540.266 286.993 540.266 286.993C540.266 286.993 518.922 301.897 502.803 300.76C491.515 299.964 451.79 288.625 451.79 288.625C451.79 288.625 452.232 251.344 451.479 236.99Z" fill="#0019A8" stroke="black" stroke-width="2" stroke-miterlimit="10" stroke-linecap="round"/>
<path d="M392.785 262.117L448.595 223.631L448.948 215.613L443.17 192.624L370.246 231.785L344.435 240.198L346.586 252.899L360.285 249.228L347.567 258.336L355.26 266.567L367.456 258.296L359.108 270.478L369.454 278.64L380.375 264.18L378.627 279.95L391.932 274.269L392.785 262.117Z" fill="white" stroke="black" stroke-width="2" stroke-miterlimit="10" stroke-linecap="round"/>
<path d="M492.113 154.865L511.928 154.259" stroke="black" stroke-width="2" stroke-miterlimit="10" stroke-linecap="round"/>
<path d="M124.648 187.899L130.816 187.174L136.258 180.643L149.32 158.512L171.451 162.503L174.353 178.466L186.689 185.722L176.893 214.385L138.798 213.659L124.648 187.899Z" fill="white" stroke="black" stroke-width="2" stroke-miterlimit="10" stroke-linecap="round"/>
<path d="M132.696 90.8726L162.16 88.7402L204.019 106.787L204.309 127.382L197.529 172.369L178.006 173.806L146.466 174.88L114.342 167.972L107.047 108.125L132.696 90.8726Z" fill="white" stroke="black" stroke-width="2" stroke-miterlimit="10" stroke-linecap="round"/>
<path d="M133.5 109.509L140.585 107.147L167.654 108.782L166.564 128.403L149.123 128.221L134.045 130.583L133.5 109.509Z" fill="white" stroke="black" stroke-width="1.5" stroke-miterlimit="10" stroke-linecap="round"/>
<path d="M208.67 133.671L197.281 131.31L184.108 131.491L183.285 111.871L203.73 110.236L209.082 112.598L208.67 133.671Z" fill="white" stroke="black" stroke-width="1.5" stroke-miterlimit="10" stroke-linecap="round"/>
<path d="M146.734 118.207C146.734 116.552 148.076 115.21 149.732 115.21C151.387 115.21 152.729 116.552 152.729 118.207C152.729 119.863 151.387 121.205 149.732 121.205C148.076 121.205 146.734 119.863 146.734 118.207Z" fill="#050505"/>
<path d="M191.242 120.931C191.242 119.276 192.584 117.934 194.24 117.934C195.895 117.934 197.237 119.276 197.237 120.931C197.237 122.587 195.895 123.929 194.24 123.929C192.584 123.929 191.242 122.587 191.242 120.931Z" fill="#050505"/>
<path d="M169.074 98.318L131.391 103.171C131.391 103.171 115.507 134.69 113.139 135.656C109.154 137.281 109.695 112.021 109.695 112.021L108.553 105.455C108.553 105.455 100.682 93.3924 117.831 79.0482C134.98 64.704 157.521 63.8655 161.468 61.1946C162.12 60.7537 174.026 55 174.026 55L166.082 66.5093L192.631 56.5176L201.767 61.0853L193.773 65.3674L192.06 69.9351L215.755 72.7899L224.605 82.2106L216.897 81.6397L226.032 93.9152L227.46 102.194L213.757 98.4829L199.483 103.621L169.074 98.318Z" fill="white" stroke="black" stroke-width="1.5" stroke-miterlimit="10" stroke-linecap="round"/>
<path d="M141.628 107.37L131.636 107.87L126.141 100.376L143.127 96.8789L169.605 101.375L167.606 107.37H141.628Z" fill="white" stroke="black" stroke-width="1.5" stroke-miterlimit="10" stroke-linecap="round"/>
<path d="M183.096 110.867L181.598 104.372L193.588 100.875L208.575 102.873L208.076 112.865L202.58 109.368L183.096 110.867Z" fill="white" stroke="black" stroke-width="1.5" stroke-miterlimit="10" stroke-linecap="round"/>
<path d="M159.212 398.897L147.263 392.669L124.161 396.228L109.822 387.331L93.8893 397.117L89.9062 425.586L122.966 426.921L165.187 413.131L159.212 398.897Z" fill="#707070" stroke="black" stroke-width="2" stroke-miterlimit="10" stroke-linecap="round"/>
<path d="M179.928 399.341L191.877 393.113L214.979 396.672L229.318 387.775L245.25 397.562L249.233 426.031L216.174 427.365L173.953 413.575L179.928 399.341Z" fill="#707070" stroke="black" stroke-width="2" stroke-miterlimit="10" stroke-linecap="round"/>
<path d="M126.014 283.035L120.039 327.456L117.251 386.328L115.48 391.868L119.464 400.967L148.938 404.178L159.693 399.361V388.122L168.854 296.603L126.014 283.035Z" fill="#C06200" stroke="black" stroke-width="2" stroke-miterlimit="10" stroke-linecap="round"/>
<path d="M209.305 285.711L215.28 330.132L218.068 389.004L219.838 394.544L215.855 403.642L186.38 406.854L175.626 402.037V390.798L166.465 299.279L209.305 285.711Z" fill="#C06200" stroke="black" stroke-width="2" stroke-miterlimit="10" stroke-linecap="round"/>
<path d="M258.725 166.574L220.789 222.277L212.689 222.733L189.347 217.327L227.667 144.69L235.722 119.054L248.6 121.012L245.128 134.607L254.114 121.909L262.571 129.406L253.959 143.06L266.591 133.159L275.024 143.282L260.595 154.275L276.508 152.335L270.996 165.568L258.725 166.574Z" fill="white" stroke="black" stroke-width="2" stroke-miterlimit="10" stroke-linecap="round"/>
<path d="M91.2537 138.33L127.833 195.408L125.057 202.938L110.837 221.903L58.7364 157.583L38.1889 139.841L45.0852 128.961L56.2975 137.644L48.0923 124.326L58.3706 119.711L66.4183 132.057L63.4317 117.594L76.1301 114.068L80.6077 131.628L85.0952 116.409L95.167 126.794L91.2537 138.33Z" fill="white" stroke="black" stroke-width="2" stroke-miterlimit="10" stroke-linecap="round"/>
<path d="M122.479 236.99C121.817 224.389 108.5 221.5 108.5 221.5V207C108.5 207 108.625 193.151 114.093 191.5C120.228 189.647 127.75 185.711 127.75 185.711C127.75 185.711 146.195 200.691 156.548 201.096C161.038 201.271 184.186 186.262 184.186 186.262C184.186 186.262 202.913 185.868 210.203 188.239C215.354 189.913 223.782 199.138 223.782 199.138L220.5 221.5C220.5 221.5 204.16 218.798 205.24 227.973C207.073 243.539 211.266 286.993 211.266 286.993C211.266 286.993 189.922 301.897 173.803 300.76C162.515 299.964 122.79 288.625 122.79 288.625C122.79 288.625 123.232 251.344 122.479 236.99Z" fill="#0019A8" stroke="black" stroke-width="2" stroke-miterlimit="10" stroke-linecap="round"/>
<path d="M163.109 154.865L173.496 159.5L182.924 154.259" stroke="black" stroke-width="2" stroke-miterlimit="10" stroke-linecap="round"/>
<path d="M462.636 209.364V221H461.273L454.932 211.864H454.818V221H453.409V209.364H454.773L461.136 218.523H461.25V209.364H462.636ZM475.274 215.182C475.274 216.409 475.053 217.47 474.609 218.364C474.166 219.258 473.558 219.947 472.786 220.432C472.013 220.917 471.13 221.159 470.138 221.159C469.145 221.159 468.263 220.917 467.49 220.432C466.717 219.947 466.109 219.258 465.666 218.364C465.223 217.47 465.001 216.409 465.001 215.182C465.001 213.955 465.223 212.894 465.666 212C466.109 211.106 466.717 210.417 467.49 209.932C468.263 209.447 469.145 209.205 470.138 209.205C471.13 209.205 472.013 209.447 472.786 209.932C473.558 210.417 474.166 211.106 474.609 212C475.053 212.894 475.274 213.955 475.274 215.182ZM473.911 215.182C473.911 214.174 473.742 213.324 473.405 212.631C473.071 211.938 472.619 211.413 472.047 211.057C471.479 210.701 470.842 210.523 470.138 210.523C469.433 210.523 468.795 210.701 468.223 211.057C467.655 211.413 467.202 211.938 466.865 212.631C466.532 213.324 466.365 214.174 466.365 215.182C466.365 216.189 466.532 217.04 466.865 217.733C467.202 218.426 467.655 218.951 468.223 219.307C468.795 219.663 469.433 219.841 470.138 219.841C470.842 219.841 471.479 219.663 472.047 219.307C472.619 218.951 473.071 218.426 473.405 217.733C473.742 217.04 473.911 216.189 473.911 215.182ZM476.523 210.614V209.364H485.25V210.614H481.591V221H480.182V210.614H476.523ZM494.311 221.205C493.758 221.205 493.256 221.1 492.805 220.892C492.355 220.68 491.997 220.375 491.732 219.977C491.466 219.576 491.334 219.091 491.334 218.523C491.334 218.023 491.432 217.617 491.629 217.307C491.826 216.992 492.089 216.746 492.419 216.568C492.749 216.39 493.112 216.258 493.51 216.17C493.911 216.08 494.315 216.008 494.72 215.955C495.25 215.886 495.68 215.835 496.01 215.801C496.343 215.763 496.586 215.701 496.737 215.614C496.893 215.527 496.97 215.375 496.97 215.159V215.114C496.97 214.553 496.817 214.117 496.51 213.807C496.207 213.496 495.747 213.341 495.129 213.341C494.489 213.341 493.987 213.481 493.624 213.761C493.26 214.042 493.004 214.341 492.857 214.659L491.584 214.205C491.811 213.674 492.114 213.261 492.493 212.966C492.875 212.667 493.292 212.458 493.743 212.341C494.197 212.22 494.644 212.159 495.084 212.159C495.364 212.159 495.686 212.193 496.05 212.261C496.417 212.326 496.771 212.46 497.112 212.665C497.457 212.869 497.743 213.178 497.97 213.591C498.197 214.004 498.311 214.557 498.311 215.25V221H496.97V219.818H496.902C496.811 220.008 496.66 220.21 496.447 220.426C496.235 220.642 495.953 220.826 495.601 220.977C495.249 221.129 494.819 221.205 494.311 221.205ZM494.516 220C495.046 220 495.493 219.896 495.857 219.688C496.224 219.479 496.5 219.21 496.686 218.881C496.875 218.551 496.97 218.205 496.97 217.841V216.614C496.913 216.682 496.788 216.744 496.595 216.801C496.406 216.854 496.186 216.902 495.936 216.943C495.69 216.981 495.449 217.015 495.214 217.045C494.983 217.072 494.796 217.095 494.652 217.114C494.304 217.159 493.978 217.233 493.675 217.335C493.375 217.434 493.133 217.583 492.947 217.784C492.766 217.981 492.675 218.25 492.675 218.591C492.675 219.057 492.847 219.409 493.192 219.648C493.54 219.883 493.982 220 494.516 220ZM511.44 214.227L510.236 214.568C510.16 214.367 510.048 214.172 509.901 213.983C509.757 213.79 509.56 213.631 509.31 213.506C509.06 213.381 508.74 213.318 508.349 213.318C507.815 213.318 507.37 213.441 507.014 213.688C506.662 213.93 506.486 214.239 506.486 214.614C506.486 214.947 506.607 215.21 506.849 215.403C507.092 215.597 507.471 215.758 507.986 215.886L509.281 216.205C510.062 216.394 510.643 216.684 511.026 217.074C511.408 217.46 511.599 217.958 511.599 218.568C511.599 219.068 511.455 219.515 511.168 219.909C510.884 220.303 510.486 220.614 509.974 220.841C509.463 221.068 508.868 221.182 508.19 221.182C507.3 221.182 506.563 220.989 505.98 220.602C505.397 220.216 505.027 219.652 504.872 218.909L506.145 218.591C506.266 219.061 506.495 219.413 506.832 219.648C507.173 219.883 507.618 220 508.168 220C508.793 220 509.289 219.867 509.656 219.602C510.027 219.333 510.213 219.011 510.213 218.636C510.213 218.333 510.107 218.08 509.895 217.875C509.683 217.667 509.357 217.511 508.918 217.409L507.463 217.068C506.664 216.879 506.077 216.585 505.702 216.188C505.33 215.786 505.145 215.284 505.145 214.682C505.145 214.189 505.283 213.754 505.56 213.375C505.84 212.996 506.221 212.699 506.702 212.483C507.187 212.267 507.736 212.159 508.349 212.159C509.213 212.159 509.891 212.348 510.384 212.727C510.88 213.106 511.232 213.606 511.44 214.227ZM517.277 221.182C516.436 221.182 515.711 220.996 515.101 220.625C514.495 220.25 514.027 219.727 513.697 219.057C513.372 218.383 513.209 217.598 513.209 216.705C513.209 215.811 513.372 215.023 513.697 214.341C514.027 213.655 514.485 213.121 515.072 212.739C515.663 212.352 516.353 212.159 517.141 212.159C517.595 212.159 518.044 212.235 518.487 212.386C518.93 212.538 519.334 212.784 519.697 213.125C520.061 213.462 520.351 213.909 520.567 214.466C520.783 215.023 520.891 215.708 520.891 216.523V217.091H514.163V215.932H519.527C519.527 215.439 519.429 215 519.232 214.614C519.038 214.227 518.762 213.922 518.402 213.699C518.046 213.475 517.625 213.364 517.141 213.364C516.607 213.364 516.144 213.496 515.754 213.761C515.368 214.023 515.071 214.364 514.862 214.784C514.654 215.205 514.55 215.655 514.55 216.136V216.909C514.55 217.568 514.663 218.127 514.891 218.585C515.122 219.04 515.442 219.386 515.851 219.625C516.26 219.86 516.735 219.977 517.277 219.977C517.629 219.977 517.947 219.928 518.232 219.83C518.519 219.727 518.768 219.576 518.976 219.375C519.184 219.17 519.345 218.917 519.459 218.614L520.754 218.977C520.618 219.417 520.389 219.803 520.067 220.136C519.745 220.466 519.347 220.723 518.874 220.909C518.4 221.091 517.868 221.182 517.277 221.182ZM524.271 209.364V221H522.93V209.364H524.271ZM530.614 212.273V213.409H525.909V212.273H530.614ZM527.318 221V211.068C527.318 210.568 527.436 210.152 527.67 209.818C527.905 209.485 528.21 209.235 528.585 209.068C528.96 208.902 529.356 208.818 529.773 208.818C530.102 208.818 530.371 208.845 530.58 208.898C530.788 208.951 530.943 209 531.045 209.045L530.659 210.205C530.591 210.182 530.496 210.153 530.375 210.119C530.258 210.085 530.102 210.068 529.909 210.068C529.466 210.068 529.146 210.18 528.949 210.403C528.756 210.627 528.659 210.955 528.659 211.386V221H527.318Z" fill="white"/>
<path d="M463.227 236V227.273H464.568V236H463.227ZM463.909 225.818C463.648 225.818 463.422 225.729 463.233 225.551C463.047 225.373 462.955 225.159 462.955 224.909C462.955 224.659 463.047 224.445 463.233 224.267C463.422 224.089 463.648 224 463.909 224C464.17 224 464.394 224.089 464.58 224.267C464.769 224.445 464.864 224.659 464.864 224.909C464.864 225.159 464.769 225.373 464.58 225.551C464.394 225.729 464.17 225.818 463.909 225.818ZM468.365 230.75V236H467.024V227.273H468.32V228.636H468.433C468.638 228.193 468.948 227.837 469.365 227.568C469.782 227.295 470.32 227.159 470.979 227.159C471.57 227.159 472.087 227.28 472.53 227.523C472.973 227.761 473.318 228.125 473.564 228.614C473.81 229.098 473.933 229.712 473.933 230.455V236H472.592V230.545C472.592 229.86 472.414 229.326 472.058 228.943C471.702 228.557 471.214 228.364 470.592 228.364C470.164 228.364 469.782 228.456 469.445 228.642C469.111 228.828 468.848 229.098 468.655 229.455C468.462 229.811 468.365 230.242 468.365 230.75ZM482.565 229.227L481.361 229.568C481.285 229.367 481.173 229.172 481.026 228.983C480.882 228.79 480.685 228.631 480.435 228.506C480.185 228.381 479.865 228.318 479.474 228.318C478.94 228.318 478.495 228.441 478.139 228.688C477.787 228.93 477.611 229.239 477.611 229.614C477.611 229.947 477.732 230.21 477.974 230.403C478.217 230.597 478.596 230.758 479.111 230.886L480.406 231.205C481.187 231.394 481.768 231.684 482.151 232.074C482.533 232.46 482.724 232.958 482.724 233.568C482.724 234.068 482.58 234.515 482.293 234.909C482.009 235.303 481.611 235.614 481.099 235.841C480.588 236.068 479.993 236.182 479.315 236.182C478.425 236.182 477.688 235.989 477.105 235.602C476.522 235.216 476.152 234.652 475.997 233.909L477.27 233.591C477.391 234.061 477.62 234.413 477.957 234.648C478.298 234.883 478.743 235 479.293 235C479.918 235 480.414 234.867 480.781 234.602C481.152 234.333 481.338 234.011 481.338 233.636C481.338 233.333 481.232 233.08 481.02 232.875C480.808 232.667 480.482 232.511 480.043 232.409L478.588 232.068C477.789 231.879 477.202 231.585 476.827 231.188C476.455 230.786 476.27 230.284 476.27 229.682C476.27 229.189 476.408 228.754 476.685 228.375C476.965 227.996 477.346 227.699 477.827 227.483C478.312 227.267 478.861 227.159 479.474 227.159C480.338 227.159 481.016 227.348 481.509 227.727C482.005 228.106 482.357 228.606 482.565 229.227ZM488.402 236.182C487.561 236.182 486.836 235.996 486.226 235.625C485.62 235.25 485.152 234.727 484.822 234.057C484.497 233.383 484.334 232.598 484.334 231.705C484.334 230.811 484.497 230.023 484.822 229.341C485.152 228.655 485.61 228.121 486.197 227.739C486.788 227.352 487.478 227.159 488.266 227.159C488.72 227.159 489.169 227.235 489.612 227.386C490.055 227.538 490.459 227.784 490.822 228.125C491.186 228.462 491.476 228.909 491.692 229.466C491.908 230.023 492.016 230.708 492.016 231.523V232.091H485.288V230.932H490.652C490.652 230.439 490.554 230 490.357 229.614C490.163 229.227 489.887 228.922 489.527 228.699C489.171 228.475 488.75 228.364 488.266 228.364C487.732 228.364 487.269 228.496 486.879 228.761C486.493 229.023 486.196 229.364 485.987 229.784C485.779 230.205 485.675 230.655 485.675 231.136V231.909C485.675 232.568 485.788 233.127 486.016 233.585C486.247 234.04 486.567 234.386 486.976 234.625C487.385 234.86 487.86 234.977 488.402 234.977C488.754 234.977 489.072 234.928 489.357 234.83C489.644 234.727 489.893 234.576 490.101 234.375C490.309 234.17 490.47 233.917 490.584 233.614L491.879 233.977C491.743 234.417 491.514 234.803 491.192 235.136C490.87 235.466 490.472 235.723 489.999 235.909C489.525 236.091 488.993 236.182 488.402 236.182ZM494.055 236V227.273H495.351V228.591H495.442C495.601 228.159 495.889 227.809 496.305 227.54C496.722 227.271 497.192 227.136 497.714 227.136C497.813 227.136 497.936 227.138 498.084 227.142C498.232 227.146 498.343 227.152 498.419 227.159V228.523C498.374 228.511 498.269 228.494 498.107 228.472C497.947 228.445 497.779 228.432 497.601 228.432C497.177 228.432 496.798 228.521 496.464 228.699C496.135 228.873 495.874 229.116 495.68 229.426C495.491 229.733 495.396 230.083 495.396 230.477V236H494.055ZM504.351 227.273V228.409H499.828V227.273H504.351ZM501.146 225.182H502.487V233.5C502.487 233.879 502.542 234.163 502.652 234.352C502.766 234.538 502.91 234.663 503.084 234.727C503.262 234.788 503.449 234.818 503.646 234.818C503.794 234.818 503.915 234.811 504.01 234.795C504.105 234.777 504.18 234.761 504.237 234.75L504.51 235.955C504.419 235.989 504.292 236.023 504.129 236.057C503.966 236.095 503.76 236.114 503.51 236.114C503.131 236.114 502.76 236.032 502.396 235.869C502.036 235.706 501.737 235.458 501.499 235.125C501.264 234.792 501.146 234.371 501.146 233.864V225.182ZM514.413 236.182C513.625 236.182 512.934 235.994 512.339 235.619C511.749 235.244 511.286 234.72 510.953 234.045C510.624 233.371 510.459 232.583 510.459 231.682C510.459 230.773 510.624 229.979 510.953 229.301C511.286 228.623 511.749 228.097 512.339 227.722C512.934 227.347 513.625 227.159 514.413 227.159C515.201 227.159 515.891 227.347 516.482 227.722C517.076 228.097 517.538 228.623 517.868 229.301C518.201 229.979 518.368 230.773 518.368 231.682C518.368 232.583 518.201 233.371 517.868 234.045C517.538 234.72 517.076 235.244 516.482 235.619C515.891 235.994 515.201 236.182 514.413 236.182ZM514.413 234.977C515.012 234.977 515.504 234.824 515.891 234.517C516.277 234.21 516.563 233.807 516.749 233.307C516.934 232.807 517.027 232.265 517.027 231.682C517.027 231.098 516.934 230.555 516.749 230.051C516.563 229.547 516.277 229.14 515.891 228.83C515.504 228.519 515.012 228.364 514.413 228.364C513.815 228.364 513.322 228.519 512.936 228.83C512.55 229.14 512.264 229.547 512.078 230.051C511.893 230.555 511.8 231.098 511.8 231.682C511.8 232.265 511.893 232.807 512.078 233.307C512.264 233.807 512.55 234.21 512.936 234.517C513.322 234.824 513.815 234.977 514.413 234.977ZM524.301 227.273V228.409H519.597V227.273H524.301ZM521.006 236V226.068C521.006 225.568 521.123 225.152 521.358 224.818C521.593 224.485 521.898 224.235 522.273 224.068C522.648 223.902 523.044 223.818 523.46 223.818C523.79 223.818 524.059 223.845 524.267 223.898C524.475 223.951 524.631 224 524.733 224.045L524.347 225.205C524.278 225.182 524.184 225.153 524.062 225.119C523.945 225.085 523.79 225.068 523.597 225.068C523.153 225.068 522.833 225.18 522.636 225.403C522.443 225.627 522.347 225.955 522.347 226.386V236H521.006Z" fill="white"/>
<path d="M453.151 253V244.818H454.408V253H453.151ZM453.79 243.455C453.545 243.455 453.333 243.371 453.156 243.204C452.982 243.037 452.895 242.837 452.895 242.602C452.895 242.368 452.982 242.167 453.156 242C453.333 241.833 453.545 241.75 453.79 241.75C454.035 241.75 454.244 241.833 454.418 242C454.596 242.167 454.685 242.368 454.685 242.602C454.685 242.837 454.596 243.037 454.418 243.204C454.244 243.371 454.035 243.455 453.79 243.455ZM457.967 248.078V253H456.71V244.818H457.925V246.097H458.031C458.223 245.681 458.514 245.347 458.905 245.095C459.295 244.839 459.8 244.712 460.418 244.712C460.972 244.712 461.456 244.825 461.872 245.053C462.287 245.276 462.61 245.617 462.841 246.075C463.072 246.53 463.187 247.105 463.187 247.801V253H461.93V247.886C461.93 247.244 461.763 246.743 461.43 246.384C461.096 246.022 460.638 245.841 460.055 245.841C459.654 245.841 459.295 245.928 458.979 246.102C458.667 246.276 458.42 246.53 458.239 246.864C458.058 247.197 457.967 247.602 457.967 248.078ZM471.28 246.651L470.151 246.97C470.08 246.782 469.975 246.599 469.836 246.422C469.702 246.24 469.517 246.091 469.282 245.974C469.048 245.857 468.748 245.798 468.382 245.798C467.882 245.798 467.464 245.914 467.131 246.145C466.8 246.372 466.635 246.661 466.635 247.013C466.635 247.325 466.749 247.572 466.976 247.753C467.203 247.934 467.558 248.085 468.041 248.206L469.256 248.504C469.987 248.682 470.532 248.953 470.891 249.319C471.25 249.681 471.429 250.148 471.429 250.72C471.429 251.189 471.294 251.608 471.024 251.977C470.758 252.347 470.385 252.638 469.906 252.851C469.426 253.064 468.869 253.17 468.233 253.17C467.399 253.17 466.708 252.989 466.161 252.627C465.614 252.265 465.268 251.736 465.122 251.04L466.316 250.741C466.429 251.182 466.644 251.512 466.96 251.732C467.28 251.952 467.697 252.062 468.212 252.062C468.798 252.062 469.263 251.938 469.607 251.69C469.955 251.437 470.129 251.136 470.129 250.784C470.129 250.5 470.03 250.262 469.831 250.07C469.632 249.875 469.327 249.729 468.915 249.634L467.551 249.314C466.802 249.136 466.252 248.861 465.9 248.488C465.552 248.112 465.378 247.641 465.378 247.077C465.378 246.615 465.508 246.207 465.767 245.852C466.03 245.496 466.387 245.218 466.838 245.015C467.292 244.813 467.807 244.712 468.382 244.712C469.192 244.712 469.828 244.889 470.289 245.244C470.754 245.599 471.085 246.068 471.28 246.651ZM476.645 253.17C475.907 253.17 475.259 252.995 474.701 252.643C474.147 252.292 473.714 251.8 473.401 251.168C473.092 250.536 472.938 249.797 472.938 248.952C472.938 248.099 473.092 247.355 473.401 246.72C473.714 246.084 474.147 245.591 474.701 245.239C475.259 244.887 475.907 244.712 476.645 244.712C477.384 244.712 478.03 244.887 478.584 245.239C479.142 245.591 479.575 246.084 479.884 246.72C480.196 247.355 480.353 248.099 480.353 248.952C480.353 249.797 480.196 250.536 479.884 251.168C479.575 251.8 479.142 252.292 478.584 252.643C478.03 252.995 477.384 253.17 476.645 253.17ZM476.645 252.041C477.206 252.041 477.668 251.897 478.03 251.61C478.392 251.322 478.661 250.944 478.835 250.475C479.009 250.006 479.096 249.499 479.096 248.952C479.096 248.405 479.009 247.895 478.835 247.423C478.661 246.951 478.392 246.569 478.03 246.278C477.668 245.987 477.206 245.841 476.645 245.841C476.084 245.841 475.623 245.987 475.26 246.278C474.898 246.569 474.63 246.951 474.456 247.423C474.282 247.895 474.195 248.405 474.195 248.952C474.195 249.499 474.282 250.006 474.456 250.475C474.63 250.944 474.898 251.322 475.26 251.61C475.623 251.897 476.084 252.041 476.645 252.041ZM482.272 253V244.818H483.486V246.097H483.593C483.763 245.66 484.038 245.321 484.418 245.079C484.798 244.834 485.255 244.712 485.787 244.712C486.327 244.712 486.776 244.834 487.135 245.079C487.497 245.321 487.779 245.66 487.982 246.097H488.067C488.277 245.674 488.591 245.338 489.01 245.09C489.429 244.838 489.931 244.712 490.517 244.712C491.249 244.712 491.847 244.941 492.312 245.399C492.778 245.853 493.01 246.562 493.01 247.524V253H491.753V247.524C491.753 246.92 491.588 246.489 491.258 246.23C490.928 245.971 490.539 245.841 490.091 245.841C489.516 245.841 489.07 246.015 488.754 246.363C488.438 246.707 488.28 247.144 488.28 247.673V253H487.002V247.396C487.002 246.931 486.851 246.556 486.549 246.272C486.247 245.985 485.858 245.841 485.382 245.841C485.056 245.841 484.75 245.928 484.466 246.102C484.186 246.276 483.958 246.517 483.784 246.826C483.614 247.132 483.529 247.485 483.529 247.886V253H482.272ZM496.566 248.078V253H495.309V244.818H496.523V246.097H496.63C496.822 245.681 497.113 245.347 497.503 245.095C497.894 244.839 498.398 244.712 499.016 244.712C499.57 244.712 500.055 244.825 500.47 245.053C500.886 245.276 501.209 245.617 501.44 246.075C501.671 246.53 501.786 247.105 501.786 247.801V253H500.529V247.886C500.529 247.244 500.362 246.743 500.028 246.384C499.694 246.022 499.236 245.841 498.654 245.841C498.253 245.841 497.894 245.928 497.578 246.102C497.265 246.276 497.019 246.53 496.838 246.864C496.656 247.197 496.566 247.602 496.566 248.078ZM504.083 253V244.818H505.34V253H504.083ZM504.722 243.455C504.477 243.455 504.266 243.371 504.089 243.204C503.915 243.037 503.828 242.837 503.828 242.602C503.828 242.368 503.915 242.167 504.089 242C504.266 241.833 504.477 241.75 504.722 241.75C504.967 241.75 505.177 241.833 505.351 242C505.528 242.167 505.617 242.368 505.617 242.602C505.617 242.837 505.528 243.037 505.351 243.204C505.177 243.371 504.967 243.455 504.722 243.455ZM510.05 253.192C509.532 253.192 509.061 253.094 508.639 252.899C508.216 252.7 507.881 252.414 507.632 252.041C507.384 251.665 507.259 251.21 507.259 250.678C507.259 250.209 507.352 249.829 507.536 249.538C507.721 249.243 507.968 249.012 508.277 248.845C508.586 248.678 508.926 248.554 509.299 248.472C509.676 248.387 510.054 248.32 510.434 248.27C510.931 248.206 511.334 248.158 511.643 248.126C511.956 248.091 512.183 248.032 512.325 247.95C512.471 247.869 512.543 247.727 512.543 247.524V247.482C512.543 246.956 512.4 246.548 512.112 246.256C511.828 245.965 511.396 245.82 510.817 245.82C510.217 245.82 509.747 245.951 509.406 246.214C509.065 246.477 508.825 246.757 508.687 247.055L507.494 246.629C507.707 246.132 507.991 245.745 508.346 245.468C508.705 245.187 509.095 244.992 509.518 244.882C509.944 244.768 510.363 244.712 510.775 244.712C511.038 244.712 511.339 244.744 511.68 244.808C512.025 244.868 512.357 244.994 512.676 245.186C513 245.377 513.268 245.667 513.481 246.054C513.694 246.441 513.8 246.96 513.8 247.609V253H512.543V251.892H512.479C512.394 252.07 512.252 252.26 512.053 252.462C511.854 252.664 511.59 252.837 511.26 252.979C510.929 253.121 510.526 253.192 510.05 253.192ZM510.242 252.062C510.739 252.062 511.158 251.965 511.499 251.77C511.844 251.574 512.103 251.322 512.277 251.013C512.455 250.704 512.543 250.379 512.543 250.038V248.888C512.49 248.952 512.373 249.01 512.192 249.064C512.014 249.113 511.808 249.158 511.574 249.197C511.343 249.232 511.118 249.264 510.897 249.293C510.681 249.317 510.505 249.339 510.37 249.357C510.043 249.399 509.738 249.468 509.454 249.564C509.173 249.657 508.946 249.797 508.772 249.985C508.602 250.17 508.516 250.422 508.516 250.741C508.516 251.178 508.678 251.509 509.001 251.732C509.328 251.952 509.741 252.062 510.242 252.062ZM519.696 253.149C519.248 253.142 518.801 253.057 518.353 252.893C517.906 252.73 517.498 252.455 517.128 252.068C516.759 251.677 516.462 251.15 516.239 250.486C516.015 249.818 515.903 248.98 515.903 247.972C515.903 247.006 515.994 246.15 516.175 245.404C516.356 244.655 516.619 244.025 516.963 243.513C517.308 242.998 517.723 242.608 518.21 242.341C518.7 242.075 519.252 241.942 519.866 241.942C520.477 241.942 521.02 242.064 521.496 242.309C521.976 242.551 522.366 242.888 522.668 243.321C522.97 243.755 523.165 244.254 523.254 244.818H521.954C521.834 244.328 521.599 243.922 521.251 243.598C520.903 243.275 520.441 243.114 519.866 243.114C519.021 243.114 518.355 243.481 517.869 244.216C517.386 244.951 517.142 245.983 517.139 247.311H517.224C517.423 247.009 517.659 246.752 517.933 246.539C518.21 246.322 518.515 246.155 518.849 246.038C519.183 245.921 519.536 245.862 519.909 245.862C520.534 245.862 521.106 246.018 521.624 246.331C522.142 246.64 522.558 247.068 522.87 247.615C523.183 248.158 523.339 248.781 523.339 249.484C523.339 250.159 523.188 250.777 522.886 251.338C522.585 251.896 522.16 252.339 521.613 252.67C521.07 252.996 520.431 253.156 519.696 253.149ZM519.696 251.977C520.143 251.977 520.544 251.865 520.9 251.642C521.258 251.418 521.541 251.118 521.747 250.741C521.956 250.365 522.061 249.946 522.061 249.484C522.061 249.033 521.96 248.623 521.757 248.254C521.558 247.881 521.283 247.585 520.932 247.364C520.584 247.144 520.186 247.034 519.738 247.034C519.401 247.034 519.087 247.102 518.796 247.237C518.504 247.368 518.249 247.549 518.028 247.78C517.812 248.011 517.641 248.275 517.517 248.574C517.393 248.868 517.331 249.179 517.331 249.506C517.331 249.939 517.432 250.344 517.634 250.72C517.84 251.097 518.121 251.4 518.476 251.631C518.835 251.862 519.241 251.977 519.696 251.977ZM525.178 250.763V249.676L529.972 242.091H530.761V243.774H530.228L526.606 249.506V249.591H533.062V250.763H525.178ZM530.313 253V250.433V249.926V242.091H531.57V253H530.313Z" fill="white"/>
<path d="M135.636 213.364V225H134.273L127.932 215.864H127.818V225H126.409V213.364H127.773L134.136 222.523H134.25V213.364H135.636ZM148.274 219.182C148.274 220.409 148.053 221.47 147.609 222.364C147.166 223.258 146.558 223.947 145.786 224.432C145.013 224.917 144.13 225.159 143.138 225.159C142.145 225.159 141.263 224.917 140.49 224.432C139.717 223.947 139.109 223.258 138.666 222.364C138.223 221.47 138.001 220.409 138.001 219.182C138.001 217.955 138.223 216.894 138.666 216C139.109 215.106 139.717 214.417 140.49 213.932C141.263 213.447 142.145 213.205 143.138 213.205C144.13 213.205 145.013 213.447 145.786 213.932C146.558 214.417 147.166 215.106 147.609 216C148.053 216.894 148.274 217.955 148.274 219.182ZM146.911 219.182C146.911 218.174 146.742 217.324 146.405 216.631C146.071 215.938 145.619 215.413 145.047 215.057C144.479 214.701 143.842 214.523 143.138 214.523C142.433 214.523 141.795 214.701 141.223 215.057C140.655 215.413 140.202 215.938 139.865 216.631C139.532 217.324 139.365 218.174 139.365 219.182C139.365 220.189 139.532 221.04 139.865 221.733C140.202 222.426 140.655 222.951 141.223 223.307C141.795 223.663 142.433 223.841 143.138 223.841C143.842 223.841 144.479 223.663 145.047 223.307C145.619 222.951 146.071 222.426 146.405 221.733C146.742 221.04 146.911 220.189 146.911 219.182ZM149.523 214.614V213.364H158.25V214.614H154.591V225H153.182V214.614H149.523ZM167.311 225.205C166.758 225.205 166.256 225.1 165.805 224.892C165.355 224.68 164.997 224.375 164.732 223.977C164.466 223.576 164.334 223.091 164.334 222.523C164.334 222.023 164.432 221.617 164.629 221.307C164.826 220.992 165.089 220.746 165.419 220.568C165.749 220.39 166.112 220.258 166.51 220.17C166.911 220.08 167.315 220.008 167.72 219.955C168.25 219.886 168.68 219.835 169.01 219.801C169.343 219.763 169.586 219.701 169.737 219.614C169.893 219.527 169.97 219.375 169.97 219.159V219.114C169.97 218.553 169.817 218.117 169.51 217.807C169.207 217.496 168.747 217.341 168.129 217.341C167.489 217.341 166.987 217.481 166.624 217.761C166.26 218.042 166.004 218.341 165.857 218.659L164.584 218.205C164.811 217.674 165.114 217.261 165.493 216.966C165.875 216.667 166.292 216.458 166.743 216.341C167.197 216.22 167.644 216.159 168.084 216.159C168.364 216.159 168.686 216.193 169.05 216.261C169.417 216.326 169.771 216.46 170.112 216.665C170.457 216.869 170.743 217.178 170.97 217.591C171.197 218.004 171.311 218.557 171.311 219.25V225H169.97V223.818H169.902C169.811 224.008 169.66 224.21 169.447 224.426C169.235 224.642 168.953 224.826 168.601 224.977C168.249 225.129 167.819 225.205 167.311 225.205ZM167.516 224C168.046 224 168.493 223.896 168.857 223.688C169.224 223.479 169.5 223.21 169.686 222.881C169.875 222.551 169.97 222.205 169.97 221.841V220.614C169.913 220.682 169.788 220.744 169.595 220.801C169.406 220.854 169.186 220.902 168.936 220.943C168.69 220.981 168.449 221.015 168.214 221.045C167.983 221.072 167.796 221.095 167.652 221.114C167.304 221.159 166.978 221.233 166.675 221.335C166.375 221.434 166.133 221.583 165.947 221.784C165.766 221.981 165.675 222.25 165.675 222.591C165.675 223.057 165.847 223.409 166.192 223.648C166.54 223.883 166.982 224 167.516 224ZM184.44 218.227L183.236 218.568C183.16 218.367 183.048 218.172 182.901 217.983C182.757 217.79 182.56 217.631 182.31 217.506C182.06 217.381 181.74 217.318 181.349 217.318C180.815 217.318 180.37 217.441 180.014 217.688C179.662 217.93 179.486 218.239 179.486 218.614C179.486 218.947 179.607 219.21 179.849 219.403C180.092 219.597 180.471 219.758 180.986 219.886L182.281 220.205C183.062 220.394 183.643 220.684 184.026 221.074C184.408 221.46 184.599 221.958 184.599 222.568C184.599 223.068 184.455 223.515 184.168 223.909C183.884 224.303 183.486 224.614 182.974 224.841C182.463 225.068 181.868 225.182 181.19 225.182C180.3 225.182 179.563 224.989 178.98 224.602C178.397 224.216 178.027 223.652 177.872 222.909L179.145 222.591C179.266 223.061 179.495 223.413 179.832 223.648C180.173 223.883 180.618 224 181.168 224C181.793 224 182.289 223.867 182.656 223.602C183.027 223.333 183.213 223.011 183.213 222.636C183.213 222.333 183.107 222.08 182.895 221.875C182.683 221.667 182.357 221.511 181.918 221.409L180.463 221.068C179.664 220.879 179.077 220.585 178.702 220.188C178.33 219.786 178.145 219.284 178.145 218.682C178.145 218.189 178.283 217.754 178.56 217.375C178.84 216.996 179.221 216.699 179.702 216.483C180.187 216.267 180.736 216.159 181.349 216.159C182.213 216.159 182.891 216.348 183.384 216.727C183.88 217.106 184.232 217.606 184.44 218.227ZM190.277 225.182C189.436 225.182 188.711 224.996 188.101 224.625C187.495 224.25 187.027 223.727 186.697 223.057C186.372 222.383 186.209 221.598 186.209 220.705C186.209 219.811 186.372 219.023 186.697 218.341C187.027 217.655 187.485 217.121 188.072 216.739C188.663 216.352 189.353 216.159 190.141 216.159C190.595 216.159 191.044 216.235 191.487 216.386C191.93 216.538 192.334 216.784 192.697 217.125C193.061 217.462 193.351 217.909 193.567 218.466C193.783 219.023 193.891 219.708 193.891 220.523V221.091H187.163V219.932H192.527C192.527 219.439 192.429 219 192.232 218.614C192.038 218.227 191.762 217.922 191.402 217.699C191.046 217.475 190.625 217.364 190.141 217.364C189.607 217.364 189.144 217.496 188.754 217.761C188.368 218.023 188.071 218.364 187.862 218.784C187.654 219.205 187.55 219.655 187.55 220.136V220.909C187.55 221.568 187.663 222.127 187.891 222.585C188.122 223.04 188.442 223.386 188.851 223.625C189.26 223.86 189.735 223.977 190.277 223.977C190.629 223.977 190.947 223.928 191.232 223.83C191.519 223.727 191.768 223.576 191.976 223.375C192.184 223.17 192.345 222.917 192.459 222.614L193.754 222.977C193.618 223.417 193.389 223.803 193.067 224.136C192.745 224.466 192.347 224.723 191.874 224.909C191.4 225.091 190.868 225.182 190.277 225.182ZM197.271 213.364V225H195.93V213.364H197.271ZM203.614 216.273V217.409H198.909V216.273H203.614ZM200.318 225V215.068C200.318 214.568 200.436 214.152 200.67 213.818C200.905 213.485 201.21 213.235 201.585 213.068C201.96 212.902 202.356 212.818 202.773 212.818C203.102 212.818 203.371 212.845 203.58 212.898C203.788 212.951 203.943 213 204.045 213.045L203.659 214.205C203.591 214.182 203.496 214.153 203.375 214.119C203.258 214.085 203.102 214.068 202.909 214.068C202.466 214.068 202.146 214.18 201.949 214.403C201.756 214.627 201.659 214.955 201.659 215.386V225H200.318Z" fill="white"/>
<path d="M136.227 240V231.273H137.568V240H136.227ZM136.909 229.818C136.648 229.818 136.422 229.729 136.233 229.551C136.047 229.373 135.955 229.159 135.955 228.909C135.955 228.659 136.047 228.445 136.233 228.267C136.422 228.089 136.648 228 136.909 228C137.17 228 137.394 228.089 137.58 228.267C137.769 228.445 137.864 228.659 137.864 228.909C137.864 229.159 137.769 229.373 137.58 229.551C137.394 229.729 137.17 229.818 136.909 229.818ZM141.365 234.75V240H140.024V231.273H141.32V232.636H141.433C141.638 232.193 141.948 231.837 142.365 231.568C142.782 231.295 143.32 231.159 143.979 231.159C144.57 231.159 145.087 231.28 145.53 231.523C145.973 231.761 146.318 232.125 146.564 232.614C146.81 233.098 146.933 233.712 146.933 234.455V240H145.592V234.545C145.592 233.86 145.414 233.326 145.058 232.943C144.702 232.557 144.214 232.364 143.592 232.364C143.164 232.364 142.782 232.456 142.445 232.642C142.111 232.828 141.848 233.098 141.655 233.455C141.462 233.811 141.365 234.242 141.365 234.75ZM155.565 233.227L154.361 233.568C154.285 233.367 154.173 233.172 154.026 232.983C153.882 232.79 153.685 232.631 153.435 232.506C153.185 232.381 152.865 232.318 152.474 232.318C151.94 232.318 151.495 232.441 151.139 232.688C150.787 232.93 150.611 233.239 150.611 233.614C150.611 233.947 150.732 234.21 150.974 234.403C151.217 234.597 151.596 234.758 152.111 234.886L153.406 235.205C154.187 235.394 154.768 235.684 155.151 236.074C155.533 236.46 155.724 236.958 155.724 237.568C155.724 238.068 155.58 238.515 155.293 238.909C155.009 239.303 154.611 239.614 154.099 239.841C153.588 240.068 152.993 240.182 152.315 240.182C151.425 240.182 150.688 239.989 150.105 239.602C149.522 239.216 149.152 238.652 148.997 237.909L150.27 237.591C150.391 238.061 150.62 238.413 150.957 238.648C151.298 238.883 151.743 239 152.293 239C152.918 239 153.414 238.867 153.781 238.602C154.152 238.333 154.338 238.011 154.338 237.636C154.338 237.333 154.232 237.08 154.02 236.875C153.808 236.667 153.482 236.511 153.043 236.409L151.588 236.068C150.789 235.879 150.202 235.585 149.827 235.188C149.455 234.786 149.27 234.284 149.27 233.682C149.27 233.189 149.408 232.754 149.685 232.375C149.965 231.996 150.346 231.699 150.827 231.483C151.312 231.267 151.861 231.159 152.474 231.159C153.338 231.159 154.016 231.348 154.509 231.727C155.005 232.106 155.357 232.606 155.565 233.227ZM161.402 240.182C160.561 240.182 159.836 239.996 159.226 239.625C158.62 239.25 158.152 238.727 157.822 238.057C157.497 237.383 157.334 236.598 157.334 235.705C157.334 234.811 157.497 234.023 157.822 233.341C158.152 232.655 158.61 232.121 159.197 231.739C159.788 231.352 160.478 231.159 161.266 231.159C161.72 231.159 162.169 231.235 162.612 231.386C163.055 231.538 163.459 231.784 163.822 232.125C164.186 232.462 164.476 232.909 164.692 233.466C164.908 234.023 165.016 234.708 165.016 235.523V236.091H158.288V234.932H163.652C163.652 234.439 163.554 234 163.357 233.614C163.163 233.227 162.887 232.922 162.527 232.699C162.171 232.475 161.75 232.364 161.266 232.364C160.732 232.364 160.269 232.496 159.879 232.761C159.493 233.023 159.196 233.364 158.987 233.784C158.779 234.205 158.675 234.655 158.675 235.136V235.909C158.675 236.568 158.788 237.127 159.016 237.585C159.247 238.04 159.567 238.386 159.976 238.625C160.385 238.86 160.86 238.977 161.402 238.977C161.754 238.977 162.072 238.928 162.357 238.83C162.644 238.727 162.893 238.576 163.101 238.375C163.309 238.17 163.47 237.917 163.584 237.614L164.879 237.977C164.743 238.417 164.514 238.803 164.192 239.136C163.87 239.466 163.472 239.723 162.999 239.909C162.525 240.091 161.993 240.182 161.402 240.182ZM167.055 240V231.273H168.351V232.591H168.442C168.601 232.159 168.889 231.809 169.305 231.54C169.722 231.271 170.192 231.136 170.714 231.136C170.813 231.136 170.936 231.138 171.084 231.142C171.232 231.146 171.343 231.152 171.419 231.159V232.523C171.374 232.511 171.269 232.494 171.107 232.472C170.947 232.445 170.779 232.432 170.601 232.432C170.177 232.432 169.798 232.521 169.464 232.699C169.135 232.873 168.874 233.116 168.68 233.426C168.491 233.733 168.396 234.083 168.396 234.477V240H167.055ZM177.351 231.273V232.409H172.828V231.273H177.351ZM174.146 229.182H175.487V237.5C175.487 237.879 175.542 238.163 175.652 238.352C175.766 238.538 175.91 238.663 176.084 238.727C176.262 238.788 176.449 238.818 176.646 238.818C176.794 238.818 176.915 238.811 177.01 238.795C177.105 238.777 177.18 238.761 177.237 238.75L177.51 239.955C177.419 239.989 177.292 240.023 177.129 240.057C176.966 240.095 176.76 240.114 176.51 240.114C176.131 240.114 175.76 240.032 175.396 239.869C175.036 239.706 174.737 239.458 174.499 239.125C174.264 238.792 174.146 238.371 174.146 237.864V229.182ZM187.413 240.182C186.625 240.182 185.934 239.994 185.339 239.619C184.749 239.244 184.286 238.72 183.953 238.045C183.624 237.371 183.459 236.583 183.459 235.682C183.459 234.773 183.624 233.979 183.953 233.301C184.286 232.623 184.749 232.097 185.339 231.722C185.934 231.347 186.625 231.159 187.413 231.159C188.201 231.159 188.891 231.347 189.482 231.722C190.076 232.097 190.538 232.623 190.868 233.301C191.201 233.979 191.368 234.773 191.368 235.682C191.368 236.583 191.201 237.371 190.868 238.045C190.538 238.72 190.076 239.244 189.482 239.619C188.891 239.994 188.201 240.182 187.413 240.182ZM187.413 238.977C188.012 238.977 188.504 238.824 188.891 238.517C189.277 238.21 189.563 237.807 189.749 237.307C189.934 236.807 190.027 236.265 190.027 235.682C190.027 235.098 189.934 234.555 189.749 234.051C189.563 233.547 189.277 233.14 188.891 232.83C188.504 232.519 188.012 232.364 187.413 232.364C186.815 232.364 186.322 232.519 185.936 232.83C185.55 233.14 185.264 233.547 185.078 234.051C184.893 234.555 184.8 235.098 184.8 235.682C184.8 236.265 184.893 236.807 185.078 237.307C185.264 237.807 185.55 238.21 185.936 238.517C186.322 238.824 186.815 238.977 187.413 238.977ZM197.301 231.273V232.409H192.597V231.273H197.301ZM194.006 240V230.068C194.006 229.568 194.123 229.152 194.358 228.818C194.593 228.485 194.898 228.235 195.273 228.068C195.648 227.902 196.044 227.818 196.46 227.818C196.79 227.818 197.059 227.845 197.267 227.898C197.475 227.951 197.631 228 197.733 228.045L197.347 229.205C197.278 229.182 197.184 229.153 197.062 229.119C196.945 229.085 196.79 229.068 196.597 229.068C196.153 229.068 195.833 229.18 195.636 229.403C195.443 229.627 195.347 229.955 195.347 230.386V240H194.006Z" fill="white"/>
<path d="M126.151 257V248.818H127.408V257H126.151ZM126.79 247.455C126.545 247.455 126.333 247.371 126.156 247.204C125.982 247.037 125.895 246.837 125.895 246.602C125.895 246.368 125.982 246.167 126.156 246C126.333 245.833 126.545 245.75 126.79 245.75C127.035 245.75 127.244 245.833 127.418 246C127.596 246.167 127.685 246.368 127.685 246.602C127.685 246.837 127.596 247.037 127.418 247.204C127.244 247.371 127.035 247.455 126.79 247.455ZM130.967 252.078V257H129.71V248.818H130.925V250.097H131.031C131.223 249.681 131.514 249.347 131.905 249.095C132.295 248.839 132.8 248.712 133.418 248.712C133.972 248.712 134.456 248.825 134.872 249.053C135.287 249.276 135.61 249.617 135.841 250.075C136.072 250.53 136.187 251.105 136.187 251.801V257H134.93V251.886C134.93 251.244 134.763 250.743 134.43 250.384C134.096 250.022 133.638 249.841 133.055 249.841C132.654 249.841 132.295 249.928 131.979 250.102C131.667 250.276 131.42 250.53 131.239 250.864C131.058 251.197 130.967 251.602 130.967 252.078ZM144.28 250.651L143.151 250.97C143.08 250.782 142.975 250.599 142.836 250.422C142.702 250.24 142.517 250.091 142.282 249.974C142.048 249.857 141.748 249.798 141.382 249.798C140.882 249.798 140.464 249.914 140.131 250.145C139.8 250.372 139.635 250.661 139.635 251.013C139.635 251.325 139.749 251.572 139.976 251.753C140.203 251.934 140.558 252.085 141.041 252.206L142.256 252.504C142.987 252.682 143.532 252.953 143.891 253.319C144.25 253.681 144.429 254.148 144.429 254.72C144.429 255.189 144.294 255.608 144.024 255.977C143.758 256.347 143.385 256.638 142.906 256.851C142.426 257.064 141.869 257.17 141.233 257.17C140.399 257.17 139.708 256.989 139.161 256.627C138.614 256.265 138.268 255.736 138.122 255.04L139.316 254.741C139.429 255.182 139.644 255.512 139.96 255.732C140.28 255.952 140.697 256.062 141.212 256.062C141.798 256.062 142.263 255.938 142.607 255.69C142.955 255.437 143.129 255.136 143.129 254.784C143.129 254.5 143.03 254.262 142.831 254.07C142.632 253.875 142.327 253.729 141.915 253.634L140.551 253.314C139.802 253.136 139.252 252.861 138.9 252.488C138.552 252.112 138.378 251.641 138.378 251.077C138.378 250.615 138.508 250.207 138.767 249.852C139.03 249.496 139.387 249.218 139.838 249.015C140.292 248.813 140.807 248.712 141.382 248.712C142.192 248.712 142.828 248.889 143.289 249.244C143.754 249.599 144.085 250.068 144.28 250.651ZM149.645 257.17C148.907 257.17 148.259 256.995 147.701 256.643C147.147 256.292 146.714 255.8 146.401 255.168C146.092 254.536 145.938 253.797 145.938 252.952C145.938 252.099 146.092 251.355 146.401 250.72C146.714 250.084 147.147 249.591 147.701 249.239C148.259 248.887 148.907 248.712 149.645 248.712C150.384 248.712 151.03 248.887 151.584 249.239C152.142 249.591 152.575 250.084 152.884 250.72C153.196 251.355 153.353 252.099 153.353 252.952C153.353 253.797 153.196 254.536 152.884 255.168C152.575 255.8 152.142 256.292 151.584 256.643C151.03 256.995 150.384 257.17 149.645 257.17ZM149.645 256.041C150.206 256.041 150.668 255.897 151.03 255.61C151.392 255.322 151.661 254.944 151.835 254.475C152.009 254.006 152.096 253.499 152.096 252.952C152.096 252.405 152.009 251.895 151.835 251.423C151.661 250.951 151.392 250.569 151.03 250.278C150.668 249.987 150.206 249.841 149.645 249.841C149.084 249.841 148.623 249.987 148.26 250.278C147.898 250.569 147.63 250.951 147.456 251.423C147.282 251.895 147.195 252.405 147.195 252.952C147.195 253.499 147.282 254.006 147.456 254.475C147.63 254.944 147.898 255.322 148.26 255.61C148.623 255.897 149.084 256.041 149.645 256.041ZM155.272 257V248.818H156.486V250.097H156.593C156.763 249.66 157.038 249.321 157.418 249.079C157.798 248.834 158.255 248.712 158.787 248.712C159.327 248.712 159.776 248.834 160.135 249.079C160.497 249.321 160.779 249.66 160.982 250.097H161.067C161.277 249.674 161.591 249.338 162.01 249.09C162.429 248.838 162.931 248.712 163.517 248.712C164.249 248.712 164.847 248.941 165.312 249.399C165.778 249.853 166.01 250.562 166.01 251.524V257H164.753V251.524C164.753 250.92 164.588 250.489 164.258 250.23C163.928 249.971 163.539 249.841 163.091 249.841C162.516 249.841 162.07 250.015 161.754 250.363C161.438 250.707 161.28 251.144 161.28 251.673V257H160.002V251.396C160.002 250.931 159.851 250.556 159.549 250.272C159.247 249.985 158.858 249.841 158.382 249.841C158.056 249.841 157.75 249.928 157.466 250.102C157.186 250.276 156.958 250.517 156.784 250.826C156.614 251.132 156.529 251.485 156.529 251.886V257H155.272ZM169.566 252.078V257H168.309V248.818H169.523V250.097H169.63C169.822 249.681 170.113 249.347 170.503 249.095C170.894 248.839 171.398 248.712 172.016 248.712C172.57 248.712 173.055 248.825 173.47 249.053C173.886 249.276 174.209 249.617 174.44 250.075C174.671 250.53 174.786 251.105 174.786 251.801V257H173.529V251.886C173.529 251.244 173.362 250.743 173.028 250.384C172.694 250.022 172.236 249.841 171.654 249.841C171.253 249.841 170.894 249.928 170.578 250.102C170.265 250.276 170.019 250.53 169.838 250.864C169.656 251.197 169.566 251.602 169.566 252.078ZM177.083 257V248.818H178.34V257H177.083ZM177.722 247.455C177.477 247.455 177.266 247.371 177.089 247.204C176.915 247.037 176.828 246.837 176.828 246.602C176.828 246.368 176.915 246.167 177.089 246C177.266 245.833 177.477 245.75 177.722 245.75C177.967 245.75 178.177 245.833 178.351 246C178.528 246.167 178.617 246.368 178.617 246.602C178.617 246.837 178.528 247.037 178.351 247.204C178.177 247.371 177.967 247.455 177.722 247.455ZM183.05 257.192C182.532 257.192 182.061 257.094 181.639 256.899C181.216 256.7 180.881 256.414 180.632 256.041C180.384 255.665 180.259 255.21 180.259 254.678C180.259 254.209 180.352 253.829 180.536 253.538C180.721 253.243 180.968 253.012 181.277 252.845C181.586 252.678 181.926 252.554 182.299 252.472C182.676 252.387 183.054 252.32 183.434 252.27C183.931 252.206 184.334 252.158 184.643 252.126C184.956 252.091 185.183 252.032 185.325 251.95C185.471 251.869 185.543 251.727 185.543 251.524V251.482C185.543 250.956 185.4 250.548 185.112 250.256C184.828 249.965 184.396 249.82 183.817 249.82C183.217 249.82 182.747 249.951 182.406 250.214C182.065 250.477 181.825 250.757 181.687 251.055L180.494 250.629C180.707 250.132 180.991 249.745 181.346 249.468C181.705 249.187 182.095 248.992 182.518 248.882C182.944 248.768 183.363 248.712 183.775 248.712C184.038 248.712 184.339 248.744 184.68 248.808C185.025 248.868 185.357 248.994 185.676 249.186C186 249.377 186.268 249.667 186.481 250.054C186.694 250.441 186.8 250.96 186.8 251.609V257H185.543V255.892H185.479C185.394 256.07 185.252 256.26 185.053 256.462C184.854 256.664 184.59 256.837 184.26 256.979C183.929 257.121 183.526 257.192 183.05 257.192ZM183.242 256.062C183.739 256.062 184.158 255.965 184.499 255.77C184.844 255.574 185.103 255.322 185.277 255.013C185.455 254.704 185.543 254.379 185.543 254.038V252.888C185.49 252.952 185.373 253.01 185.192 253.064C185.014 253.113 184.808 253.158 184.574 253.197C184.343 253.232 184.118 253.264 183.897 253.293C183.681 253.317 183.505 253.339 183.37 253.357C183.043 253.399 182.738 253.468 182.454 253.564C182.173 253.657 181.946 253.797 181.772 253.985C181.602 254.17 181.516 254.422 181.516 254.741C181.516 255.178 181.678 255.509 182.001 255.732C182.328 255.952 182.741 256.062 183.242 256.062ZM192.696 257.149C192.248 257.142 191.801 257.057 191.353 256.893C190.906 256.73 190.498 256.455 190.128 256.068C189.759 255.677 189.462 255.15 189.239 254.486C189.015 253.818 188.903 252.98 188.903 251.972C188.903 251.006 188.994 250.15 189.175 249.404C189.356 248.655 189.619 248.025 189.963 247.513C190.308 246.998 190.723 246.608 191.21 246.341C191.7 246.075 192.252 245.942 192.866 245.942C193.477 245.942 194.02 246.064 194.496 246.309C194.976 246.551 195.366 246.888 195.668 247.321C195.97 247.755 196.165 248.254 196.254 248.818H194.954C194.834 248.328 194.599 247.922 194.251 247.598C193.903 247.275 193.441 247.114 192.866 247.114C192.021 247.114 191.355 247.481 190.869 248.216C190.386 248.951 190.142 249.983 190.139 251.311H190.224C190.423 251.009 190.659 250.752 190.933 250.539C191.21 250.322 191.515 250.155 191.849 250.038C192.183 249.921 192.536 249.862 192.909 249.862C193.534 249.862 194.106 250.018 194.624 250.331C195.142 250.64 195.558 251.068 195.87 251.615C196.183 252.158 196.339 252.781 196.339 253.484C196.339 254.159 196.188 254.777 195.886 255.338C195.585 255.896 195.16 256.339 194.613 256.67C194.07 256.996 193.431 257.156 192.696 257.149ZM192.696 255.977C193.143 255.977 193.544 255.865 193.9 255.642C194.258 255.418 194.541 255.118 194.747 254.741C194.956 254.365 195.061 253.946 195.061 253.484C195.061 253.033 194.96 252.623 194.757 252.254C194.558 251.881 194.283 251.585 193.932 251.364C193.584 251.144 193.186 251.034 192.738 251.034C192.401 251.034 192.087 251.102 191.796 251.237C191.504 251.368 191.249 251.549 191.028 251.78C190.812 252.011 190.641 252.275 190.517 252.574C190.393 252.868 190.331 253.179 190.331 253.506C190.331 253.939 190.432 254.344 190.634 254.72C190.84 255.097 191.121 255.4 191.476 255.631C191.835 255.862 192.241 255.977 192.696 255.977ZM198.178 254.763V253.676L202.972 246.091H203.761V247.774H203.228L199.606 253.506V253.591H206.062V254.763H198.178ZM203.313 257V254.433V253.926V246.091H204.57V257H203.313Z" fill="white"/>
</svg>
