<svg width="379" height="253" viewBox="0 0 379 253" fill="none" xmlns="http://www.w3.org/2000/svg" xmlns:xlink="http://www.w3.org/1999/xlink">
<g clip-path="url(#clip0_1577_25)">
<path d="M348.647 82.0223C348.788 116.936 355.581 129.532 272.859 141.962C220.652 149.806 132.059 118.319 147.084 71.8019C160.821 29.2763 198.787 23.0706 251.58 22.8569C304.372 22.6431 348.505 47.1084 348.647 82.0223Z" fill="#6AABFF"/>
<path d="M203.825 60.5978C210.268 92.6786 144.289 141.88 91.8684 152.409C39.4477 162.938 6.99879 126.532 0.555213 94.4509C-5.88837 62.3701 44.821 32.1037 97.2417 21.5748C149.662 11.0458 197.381 28.5171 203.825 60.5978Z" fill="#5CE3FF"/>
<path d="M378.452 182.403C376.752 214.574 335.503 238.546 286.321 235.946C237.138 233.346 174.339 203.297 176.526 171.156C180.67 110.277 243.297 101.576 292.479 104.176C341.661 106.776 380.153 150.233 378.452 182.403Z" fill="#5CC4FF"/>
<path d="M226.556 159.886C230.196 192.913 193.01 223.724 143.596 229.556C71.5391 238.061 17.6142 209.09 27.2986 171.072C41.0704 117.01 80.9578 115.403 130.415 109.953C179.873 104.503 222.917 126.858 226.556 159.886Z" fill="#70BDFF"/>
<path d="M182.452 111.933L143.683 66.0805L183.125 32.7305L251.824 67.5883L182.452 111.933Z" fill="#6AABFF"/>
<path d="M209.946 72.1035C209.946 69.8944 211.737 68.1035 213.946 68.1035H365.946C368.155 68.1035 369.946 69.8944 369.946 72.1035V104.104C369.946 106.313 368.155 108.104 365.946 108.104H273.946C271.946 108.104 270.946 109.104 269.946 110.104L265.946 114.104C264.946 115.104 263.946 116.104 261.946 116.104H249.946C247.946 116.104 246.946 115.104 245.946 114.104L241.946 110.104C240.946 109.104 239.946 108.104 237.946 108.104H229.946C227.737 108.104 225.946 109.894 225.946 112.104V152.104C225.946 154.313 227.737 156.104 229.946 156.104H365.946C368.155 156.104 369.946 157.894 369.946 160.104V184.104C369.946 186.313 368.155 188.104 365.946 188.104H213.946C211.737 188.104 209.946 186.313 209.946 184.104V72.1035Z" fill="#FFAB19" stroke="#CF8B17" stroke-miterlimit="10"/>
<path d="M225.946 112.104C225.946 109.894 227.737 108.104 229.946 108.104H237.946C239.946 108.104 240.946 109.104 241.946 110.104L245.946 114.104C246.946 115.104 247.946 116.104 249.946 116.104H261.946C263.946 116.104 264.946 115.104 265.946 114.104L269.946 110.104C270.946 109.104 271.946 108.104 273.946 108.104H329.806C332.015 108.104 333.806 109.894 333.806 112.104V152.104C333.806 154.313 332.015 156.104 329.806 156.104H229.946C227.737 156.104 225.946 154.313 225.946 152.104V112.104Z" fill="#FF6680" stroke="#FF3355" stroke-miterlimit="10"/>
<path d="M16.5981 38.129C16.2961 35.9406 17.8254 33.9218 20.0138 33.6198L27.9387 32.5262C29.9199 32.2528 31.0472 33.1067 32.1745 33.9607L36.6837 37.3763C37.8111 38.2302 38.9384 39.0842 40.9196 38.8108L52.8069 37.1704C54.7882 36.897 55.6421 35.7697 56.496 34.6424L59.9117 30.1332C60.7656 29.0059 61.6195 27.8786 63.6007 27.6052L263.645 0.000923689C265.833 -0.301056 267.852 1.2282 268.154 3.4166L273.622 43.0411C273.924 45.2295 272.395 47.2484 270.206 47.5504L70.1621 75.1546C68.1809 75.428 67.327 76.5553 66.4731 77.6826L63.0574 82.1919C62.2035 83.3192 61.3496 84.4465 59.3683 84.7199L47.481 86.3602C45.4998 86.6336 44.3724 85.7797 43.2451 84.9258L38.7359 81.5101C37.6086 80.6562 36.4813 79.8023 34.5001 80.0757L26.5752 81.1692C24.3868 81.4712 22.3679 79.9419 22.0659 77.7535L16.5981 38.129Z" fill="#4C97FF" stroke="#3373CC" stroke-miterlimit="10"/>
<path d="M25.2577 179.816C25.4778 177.618 27.4383 176.015 29.6364 176.235L37.5966 177.032C39.5866 177.232 40.482 178.327 41.3773 179.421L44.9587 183.8C45.8541 184.895 46.7494 185.989 48.7394 186.189L60.6797 187.385C62.6697 187.584 63.7644 186.689 64.8591 185.793L69.2379 182.212C70.3326 181.317 71.4273 180.421 73.4173 180.621L196.551 192.955C198.749 193.176 200.353 195.136 200.132 197.334L196.145 237.135C195.925 239.333 193.965 240.937 191.767 240.716L68.633 228.382C66.6429 228.182 65.5482 229.078 64.4535 229.973L60.0748 233.554C58.9801 234.45 57.8854 235.345 55.8953 235.146L43.9551 233.95C41.9651 233.75 41.0697 232.656 40.1744 231.561L36.593 227.182C35.6976 226.087 34.8023 224.993 32.8123 224.793L24.8521 223.996C22.654 223.776 21.0505 221.815 21.2707 219.617L25.2577 179.816Z" fill="#9966FF" stroke="#774DCB" stroke-miterlimit="10"/>
<path d="M167.893 198.124L175.853 198.921C184.646 199.802 191.059 207.644 190.179 216.436C189.298 225.229 181.456 231.643 172.663 230.762L164.703 229.965C155.911 229.084 149.497 221.242 150.378 212.449C151.259 203.657 159.1 197.243 167.893 198.124Z" fill="#FFDD00" stroke="#774DCB" stroke-miterlimit="10"/>
<path d="M116.002 234.123C125.782 217.639 139.744 222.55 139.744 222.55C154.351 226.459 163.534 234.123 163.534 234.123H116.002Z" fill="#E3A066"/>
<path d="M138.895 222.316C153.503 226.225 163.534 234.123 163.534 234.123H115.109" stroke="#8D6A4A" stroke-width="0.5" stroke-miterlimit="10"/>
<path d="M131.247 234.301C138.557 217.817 148.715 222.728 148.715 222.728C159.355 226.637 165.992 234.301 165.992 234.301H131.247Z" fill="#E3A066"/>
<path d="M148.097 222.494C158.737 226.402 165.992 234.301 165.992 234.301H130.594" stroke="#8D6A4A" stroke-miterlimit="10"/>
<path d="M108.437 235.532C116.451 227.657 129.138 226.189 129.138 226.189C139.777 230.099 143.182 235.532 143.182 235.532H108.437Z" fill="#E3A066"/>
<path d="M129.138 226.189C139.777 230.099 143.182 235.531 143.182 235.531H107.784" stroke="#8D6A4A" stroke-miterlimit="10"/>
<path d="M130.636 69.9812L117.636 68.2312L116.386 60.4812L119.33 57.4403L149.33 53.5653L178.182 53.3223L199.573 65.9473L205.573 70.5723L205.698 93.1973L184.448 94.8223L184.698 80.6973L185.323 78.8223L184.198 81.6973L184.698 109.67L187.698 120.67L160.073 124.42L122.62 123.473L116.245 122.723L130.12 93.0977L131.37 77.4727L130.636 69.9812Z" fill="#0019A8" stroke="black" stroke-width="1.5" stroke-miterlimit="10" stroke-linecap="round"/>
<path d="M178.838 52.9475L183.963 56.6975L180.213 58.3225L171.588 58.9475L168.545 57.9863L174.545 50.8613L178.838 52.9475Z" fill="white" stroke="black" stroke-width="1.5" stroke-miterlimit="10" stroke-linecap="round"/>
<path d="M144.955 39.9035L145.755 23.7035L164.955 18.1035L186.555 22.9035L187.355 33.9035L184.155 49.1035L174.03 57.4535L153.455 58.7785L148.555 50.7035L144.955 39.9035Z" fill="white" stroke="black" stroke-width="1.5" stroke-miterlimit="10" stroke-linecap="round"/>
<path d="M176.092 19.859L165.692 22.3447L168.092 19.633L155.292 24.8304L156.092 22.1187L144.692 33.6434L143.692 29.3499L137.092 35.9032L143.292 18.2772L139.692 16.6954L151.292 10.5941L148.092 9.23823L170.692 7.65641L170.092 4.71875L185.092 14.2097L186.692 11.9499L187.092 20.7629L188.292 31.6097L185.692 39.5188L182.892 29.3499L176.092 19.859Z" fill="white" stroke="black" stroke-width="2" stroke-miterlimit="10" stroke-linecap="round"/>
<path d="M165.155 41.4434L164.405 33.1934L169.28 31.4434L180.78 32.9434L178.78 41.5684L171.655 41.8184L165.155 41.4434Z" fill="white" stroke="black" stroke-width="1.5" stroke-miterlimit="10" stroke-linecap="round"/>
<path d="M152.447 43.9576L146.091 44.3487L143.446 35.947L153.514 33.4219L158.022 34.7252L158.185 43.0008L152.447 43.9576Z" fill="white" stroke="black" stroke-width="1.5" stroke-miterlimit="10" stroke-linecap="round"/>
<path d="M153.179 33.5293L141.679 36.4043L139.929 32.6543L147.304 29.5293L160.054 30.1543L159.679 34.7793L153.179 33.5293Z" fill="white" stroke="black" stroke-width="1.5" stroke-miterlimit="10" stroke-linecap="round"/>
<path d="M164.179 33.0293L163.554 29.5293L173.304 27.1543L183.429 30.4043L183.554 32.9043L169.929 31.4043L164.179 33.0293Z" fill="white" stroke="black" stroke-width="1.5" stroke-miterlimit="10" stroke-linecap="round"/>
<path d="M150.179 38.5293C150.179 37.8389 150.738 37.2793 151.429 37.2793C152.119 37.2793 152.679 37.8389 152.679 38.5293C152.679 39.2196 152.119 39.7793 151.429 39.7793C150.738 39.7793 150.179 39.2196 150.179 38.5293Z" fill="black"/>
<path d="M170.554 36.6543C170.554 35.9639 171.113 35.4043 171.804 35.4043C172.494 35.4043 173.054 35.9639 173.054 36.6543C173.054 37.3446 172.494 37.9043 171.804 37.9043C171.113 37.9043 170.554 37.3446 170.554 36.6543Z" fill="black"/>
<path d="M175.304 51.5293L170.679 54.1543L158.429 55.4043" stroke="black" stroke-width="1.5" stroke-miterlimit="10" stroke-linecap="round"/>
<path d="M138.345 77.8259L138.224 84.4116L137.452 84.3974L133.958 79.1609L133.894 79.1597L133.799 84.3305L133.002 84.3158L133.122 77.7302L133.894 77.7443L137.401 82.994L137.465 82.9952L137.56 77.8115L138.345 77.8259ZM145.437 81.2499C145.424 81.9444 145.288 82.5424 145.027 83.0437C144.767 83.5451 144.416 83.9289 143.974 84.1953C143.531 84.4617 143.029 84.5897 142.468 84.5794C141.906 84.5691 141.409 84.4228 140.977 84.1404C140.544 83.8579 140.208 83.4615 139.966 82.9509C139.724 82.4404 139.61 81.8379 139.623 81.1433C139.635 80.4487 139.772 79.8507 140.032 79.3494C140.292 78.8481 140.643 78.4642 141.086 78.1978C141.528 77.9315 142.03 77.8034 142.592 77.8137C143.153 77.824 143.65 77.9704 144.083 78.2528C144.515 78.5352 144.852 78.9317 145.093 79.4422C145.335 79.9527 145.449 80.5553 145.437 81.2499ZM144.665 81.2357C144.675 80.6655 144.589 80.1825 144.405 79.7866C144.224 79.3909 143.973 79.0893 143.653 78.8818C143.335 78.6744 142.977 78.567 142.578 78.5597C142.179 78.5524 141.816 78.6466 141.489 78.8421C141.164 79.0378 140.902 79.33 140.704 79.7188C140.508 80.1076 140.405 80.5872 140.395 81.1574C140.384 81.7277 140.47 82.2107 140.651 82.6064C140.835 83.0023 141.085 83.3039 141.403 83.5113C141.723 83.7187 142.083 83.8261 142.481 83.8334C142.88 83.8407 143.242 83.7466 143.567 83.5509C143.895 83.3554 144.156 83.0632 144.352 82.6743C144.55 82.2855 144.654 81.806 144.665 81.2357ZM146.191 78.6774L146.204 77.97L151.143 78.0605L151.13 78.768L149.059 78.73L148.951 84.6082L148.154 84.5936L148.262 78.7154L146.191 78.6774ZM156.148 84.856C155.835 84.8502 155.552 84.7861 155.299 84.6635C155.046 84.5388 154.847 84.3625 154.701 84.1346C154.555 83.9046 154.485 83.6289 154.491 83.3073C154.496 83.0243 154.556 82.796 154.671 82.6222C154.786 82.4463 154.937 82.3097 155.126 82.2124C155.314 82.115 155.521 82.0438 155.747 81.9986C155.975 81.9513 156.204 81.9148 156.434 81.8889C156.735 81.8559 156.979 81.8314 157.166 81.8155C157.355 81.7975 157.493 81.7647 157.579 81.7169C157.668 81.6692 157.714 81.5843 157.716 81.4621L157.716 81.4364C157.722 81.1191 157.64 80.871 157.469 80.692C157.301 80.5131 157.042 80.4204 156.693 80.414C156.331 80.4074 156.045 80.4815 155.836 80.6363C155.628 80.7912 155.48 80.9579 155.393 81.1364L154.677 80.866C154.811 80.5682 154.987 80.3377 155.205 80.1744C155.424 80.009 155.662 79.8954 155.919 79.8337C156.177 79.7698 156.431 79.7401 156.679 79.7447C156.838 79.7476 157.02 79.7702 157.225 79.8126C157.432 79.8528 157.631 79.9326 157.822 80.0519C158.015 80.1712 158.174 80.3489 158.298 80.585C158.422 80.821 158.481 81.1352 158.474 81.5275L158.414 84.7817L157.655 84.7678L157.668 84.0989L157.629 84.0982C157.576 84.2045 157.488 84.3176 157.365 84.4376C157.243 84.5576 157.081 84.6586 156.881 84.7407C156.68 84.8228 156.435 84.8612 156.148 84.856ZM156.276 84.1764C156.577 84.1819 156.831 84.1276 157.039 84.0134C157.249 83.8993 157.408 83.75 157.516 83.5654C157.627 83.3809 157.684 83.1857 157.688 82.9799L157.701 82.2853C157.668 82.3233 157.597 82.3574 157.487 82.3875C157.379 82.4156 157.254 82.4401 157.112 82.4611C156.972 82.48 156.836 82.4968 156.703 82.5115C156.572 82.5241 156.465 82.535 156.384 82.5442C156.186 82.5663 156.001 82.6048 155.828 82.6595C155.658 82.7121 155.519 82.7943 155.412 82.906C155.307 83.0156 155.253 83.1669 155.249 83.3598C155.244 83.6235 155.338 83.8246 155.531 83.9633C155.726 84.0998 155.974 84.1708 156.276 84.1764ZM165.915 81.0849L165.23 81.2653C165.189 81.1509 165.128 81.0393 165.046 80.9306C164.967 80.8198 164.857 80.7277 164.717 80.6544C164.576 80.581 164.396 80.5423 164.175 80.5383C163.873 80.5327 163.62 80.5978 163.416 80.7335C163.214 80.867 163.111 81.0399 163.107 81.2521C163.103 81.4408 163.169 81.591 163.305 81.7029C163.44 81.8147 163.652 81.9098 163.943 81.988L164.673 82.1815C165.112 82.2968 165.438 82.4668 165.651 82.6916C165.863 82.9142 165.966 83.1981 165.96 83.5433C165.955 83.8263 165.869 84.0777 165.702 84.2977C165.537 84.5177 165.309 84.6894 165.017 84.8127C164.725 84.936 164.387 84.9941 164.003 84.9871C163.5 84.9779 163.085 84.8609 162.759 84.6362C162.432 84.4115 162.229 84.0882 162.149 83.6664L162.873 83.4995C162.936 83.7666 163.063 83.9684 163.251 84.1048C163.441 84.2412 163.692 84.3123 164.003 84.318C164.357 84.3245 164.639 84.2546 164.85 84.1084C165.062 83.96 165.171 83.7797 165.175 83.5675C165.178 83.396 165.12 83.2512 165.002 83.1333C164.885 83.0132 164.702 82.9219 164.454 82.8595L163.635 82.6514C163.184 82.5359 162.855 82.3637 162.647 82.1347C162.441 81.9036 162.341 81.6177 162.347 81.2768C162.352 80.9981 162.435 80.753 162.596 80.5415C162.758 80.33 162.977 80.1657 163.251 80.0485C163.528 79.9313 163.84 79.8759 164.187 79.8823C164.676 79.8913 165.058 80.0055 165.332 80.225C165.609 80.4445 165.804 80.7311 165.915 81.0849ZM169.146 85.0814C168.67 85.0727 168.262 84.9601 167.92 84.7437C167.581 84.5251 167.322 84.2245 167.142 83.8416C166.965 83.4566 166.881 83.0112 166.89 82.5052C166.899 81.9993 167 81.5551 167.191 81.1726C167.385 80.788 167.65 80.4905 167.986 80.28C168.324 80.0675 168.717 79.9653 169.163 79.9735C169.42 79.9782 169.673 80.0258 169.922 80.1161C170.172 80.2065 170.397 80.35 170.6 80.5467C170.802 80.7413 170.961 80.9972 171.078 81.3146C171.194 81.632 171.248 82.0211 171.24 82.482L171.234 82.8036L167.426 82.7338L167.438 82.0778L170.474 82.1335C170.479 81.8548 170.428 81.6051 170.32 81.3844C170.215 81.1637 170.062 80.9883 169.86 80.858C169.661 80.7279 169.424 80.6603 169.15 80.6552C168.848 80.6497 168.585 80.7199 168.361 80.8659C168.14 81.0098 167.968 81.1997 167.846 81.4355C167.724 81.6713 167.66 81.9253 167.655 82.1976L167.647 82.6349C167.64 83.0079 167.699 83.3253 167.822 83.5871C167.949 83.8467 168.126 84.0462 168.355 84.1855C168.584 84.3227 168.852 84.394 169.159 84.3997C169.358 84.4033 169.539 84.3787 169.7 84.326C169.864 84.2711 170.006 84.1879 170.126 84.0764C170.246 83.9628 170.34 83.8209 170.408 83.6505L171.137 83.8698C171.055 84.117 170.922 84.3333 170.736 84.5186C170.55 84.7018 170.322 84.8435 170.053 84.9436C169.783 85.0416 169.481 85.0875 169.146 85.0814ZM173.227 78.4654L173.106 85.051L172.348 85.0371L172.468 78.4515L173.227 78.4654ZM176.787 80.1776L176.775 80.8207L174.112 80.7719L174.124 80.1288L176.787 80.1776ZM174.831 85.0827L174.934 79.4617C174.939 79.1787 175.01 78.9441 175.146 78.7579C175.283 78.5717 175.458 78.4334 175.672 78.3429C175.886 78.2525 176.111 78.2094 176.346 78.2138C176.533 78.2172 176.685 78.235 176.802 78.2672C176.92 78.2993 177.007 78.3288 177.064 78.3556L176.834 79.0076C176.795 78.994 176.742 78.9769 176.674 78.9564C176.608 78.9359 176.52 78.9246 176.411 78.9226C176.16 78.918 175.978 78.9779 175.864 79.1024C175.752 79.2269 175.694 79.4113 175.69 79.6557L175.59 85.0966L174.831 85.0827Z" fill="white"/>
<path d="M132.707 94.7612L132.798 89.822L133.557 89.8359L133.466 94.7751L132.707 94.7612ZM133.199 89.0058C133.051 89.0031 132.924 88.9504 132.819 88.8477C132.716 88.745 132.665 88.6229 132.668 88.4814C132.671 88.3399 132.725 88.2198 132.832 88.121C132.941 88.0222 133.07 87.9741 133.218 87.9768C133.366 87.9795 133.491 88.0322 133.594 88.1349C133.7 88.2377 133.751 88.3598 133.749 88.5012C133.746 88.6427 133.69 88.7629 133.581 88.8617C133.474 88.9605 133.347 89.0086 133.199 89.0058ZM135.67 91.8433L135.615 94.8145L134.856 94.8006L134.947 89.8614L135.68 89.8748L135.666 90.6466L135.73 90.6477C135.85 90.399 136.03 90.2008 136.269 90.0529C136.507 89.9028 136.813 89.8312 137.186 89.8381C137.52 89.8442 137.812 89.9182 138.06 90.06C138.308 90.1996 138.5 90.409 138.634 90.6881C138.768 90.9651 138.832 91.3136 138.824 91.7338L138.766 94.8723L138.008 94.8584L138.064 91.7714C138.071 91.3833 137.976 91.0792 137.778 90.859C137.581 90.6366 137.306 90.5222 136.955 90.5158C136.713 90.5114 136.495 90.5599 136.302 90.6615C136.112 90.763 135.96 90.9136 135.847 91.1131C135.734 91.3126 135.675 91.556 135.67 91.8433ZM143.722 91.1288L143.037 91.3092C142.996 91.1948 142.935 91.0833 142.853 90.9745C142.774 90.8637 142.664 90.7716 142.524 90.6983C142.384 90.625 142.203 90.5863 141.982 90.5822C141.68 90.5767 141.427 90.6417 141.223 90.7774C141.021 90.9109 140.918 91.0838 140.914 91.2961C140.911 91.4847 140.976 91.635 141.112 91.7468C141.247 91.8587 141.46 91.9537 141.75 92.0319L142.48 92.2254C142.919 92.3407 143.245 92.5108 143.458 92.7355C143.67 92.9582 143.773 93.2421 143.767 93.5872C143.762 93.8702 143.676 94.1217 143.509 94.3416C143.344 94.5616 143.116 94.7333 142.824 94.8566C142.532 94.9799 142.194 95.0381 141.811 95.031C141.307 95.0218 140.892 94.9048 140.566 94.6801C140.24 94.4554 140.036 94.1321 139.956 93.7103L140.68 93.5435C140.744 93.8106 140.87 94.0123 141.058 94.1487C141.248 94.2852 141.499 94.3562 141.81 94.3619C142.164 94.3684 142.446 94.2985 142.657 94.1523C142.869 94.0039 142.978 93.8236 142.982 93.6114C142.985 93.4399 142.928 93.2952 142.81 93.1772C142.692 93.0571 142.509 92.9658 142.261 92.9034L141.442 92.6954C140.991 92.5799 140.662 92.4076 140.454 92.1787C140.248 91.9476 140.148 91.6616 140.154 91.3207C140.16 91.042 140.242 90.7969 140.403 90.5854C140.565 90.374 140.784 90.2096 141.058 90.0924C141.335 89.9753 141.647 89.9199 141.994 89.9262C142.483 89.9352 142.865 90.0494 143.14 90.2689C143.416 90.4884 143.611 90.7751 143.722 91.1288ZM146.953 95.1253C146.477 95.1166 146.069 95.004 145.727 94.7876C145.388 94.5691 145.129 94.2684 144.949 93.8855C144.772 93.5005 144.688 93.0551 144.697 92.5492C144.707 92.0432 144.807 91.599 144.998 91.2165C145.192 90.8319 145.457 90.5344 145.793 90.324C146.132 90.1114 146.524 90.0093 146.97 90.0174C147.227 90.0222 147.48 90.0697 147.729 90.16C147.979 90.2504 148.204 90.3939 148.407 90.5906C148.609 90.7852 148.768 91.0412 148.885 91.3585C149.001 91.6759 149.055 92.0651 149.047 92.526L149.041 92.8475L145.233 92.7777L145.246 92.1217L148.281 92.1774C148.286 91.8987 148.235 91.649 148.128 91.4283C148.022 91.2076 147.869 91.0322 147.668 90.902C147.468 90.7718 147.232 90.7042 146.957 90.6992C146.655 90.6936 146.392 90.7639 146.168 90.9099C145.947 91.0538 145.775 91.2436 145.653 91.4794C145.531 91.7152 145.467 91.9693 145.462 92.2415L145.454 92.6788C145.447 93.0519 145.506 93.3692 145.63 93.631C145.756 93.8906 145.933 94.0901 146.162 94.2294C146.391 94.3666 146.659 94.438 146.966 94.4436C147.165 94.4472 147.346 94.4227 147.507 94.3699C147.671 94.315 147.813 94.2318 147.933 94.1204C148.053 94.0068 148.147 93.8648 148.215 93.6945L148.944 93.9137C148.862 94.161 148.729 94.3773 148.543 94.5626C148.357 94.7457 148.13 94.8874 147.86 94.9875C147.59 95.0855 147.288 95.1314 146.953 95.1253ZM150.155 95.0811L150.245 90.1418L150.978 90.1553L150.965 90.9013L151.016 90.9022C151.111 90.6595 151.277 90.4642 151.516 90.3163C151.754 90.1684 152.022 90.0972 152.318 90.1026C152.373 90.1036 152.443 90.106 152.526 90.1097C152.61 90.1133 152.673 90.1177 152.716 90.1228L152.702 90.8945C152.676 90.8876 152.617 90.8769 152.526 90.8624C152.436 90.8457 152.341 90.8364 152.24 90.8346C152 90.8302 151.784 90.8766 151.594 90.9739C151.406 91.0691 151.255 91.2036 151.143 91.3774C151.032 91.5491 150.975 91.7464 150.971 91.9694L150.914 95.095L150.155 95.0811ZM156.072 90.2486L156.06 90.8918L153.501 90.8448L153.512 90.2017L156.072 90.2486ZM154.28 89.032L155.039 89.0459L154.953 93.7537C154.949 93.968 154.977 94.1294 155.037 94.2377C155.099 94.3439 155.18 94.4162 155.278 94.4544C155.378 94.4906 155.483 94.5097 155.595 94.5117C155.679 94.5132 155.747 94.5102 155.801 94.5026C155.855 94.4929 155.898 94.4851 155.93 94.4793L156.072 95.1638C156.02 95.1822 155.948 95.2001 155.855 95.2177C155.763 95.2375 155.646 95.2461 155.504 95.2435C155.29 95.2395 155.081 95.1896 154.877 95.0936C154.675 94.9977 154.508 94.8542 154.376 94.6631C154.247 94.472 154.185 94.2328 154.19 93.9455L154.28 89.032ZM161.674 95.3952C161.229 95.387 160.839 95.2737 160.507 95.0553C160.176 94.837 159.92 94.5352 159.738 94.1502C159.559 93.7652 159.474 93.3176 159.483 92.8074C159.493 92.2929 159.594 91.8454 159.788 91.4651C159.983 91.0849 160.25 90.7917 160.589 90.5856C160.929 90.3795 161.322 90.2806 161.768 90.2887C162.214 90.2969 162.602 90.4102 162.933 90.6285C163.265 90.8469 163.522 91.1497 163.701 91.5369C163.883 91.9241 163.969 92.3749 163.959 92.8894C163.95 93.3996 163.847 93.8438 163.652 94.2219C163.458 94.6001 163.191 94.8922 162.851 95.0983C162.512 95.3044 162.12 95.4034 161.674 95.3952ZM161.687 94.7135C162.026 94.7197 162.306 94.638 162.528 94.4683C162.75 94.2987 162.916 94.0733 163.026 93.7923C163.136 93.5112 163.194 93.2056 163.2 92.8755C163.206 92.5454 163.16 92.2368 163.06 91.9497C162.96 91.6627 162.802 91.4293 162.587 91.2495C162.371 91.0697 162.094 90.9767 161.756 90.9704C161.417 90.9642 161.137 91.047 160.915 91.2188C160.693 91.3906 160.527 91.6181 160.416 91.9013C160.306 92.1845 160.248 92.4911 160.242 92.8213C160.236 93.1514 160.283 93.4589 160.383 93.7438C160.483 94.0287 160.64 94.26 160.856 94.4377C161.071 94.6153 161.348 94.7073 161.687 94.7135ZM167.363 90.4556L167.351 91.0988L164.689 91.0499L164.7 90.4068L167.363 90.4556ZM165.407 95.3607L165.51 89.7397C165.516 89.4567 165.586 89.2221 165.723 89.0359C165.859 88.8497 166.034 88.7114 166.248 88.621C166.462 88.5305 166.687 88.4875 166.923 88.4918C167.109 88.4952 167.261 88.513 167.379 88.5452C167.496 88.5773 167.583 88.6068 167.641 88.6336L167.41 89.2856C167.372 89.272 167.318 89.255 167.25 89.2344C167.184 89.2139 167.096 89.2026 166.987 89.2006C166.736 89.196 166.554 89.256 166.44 89.3804C166.329 89.5049 166.27 89.6893 166.266 89.9337L166.166 95.3746L165.407 95.3607Z" fill="white"/>
<path d="M132.516 105.208L132.606 100.269L133.365 100.283L133.275 105.222L132.516 105.208ZM133.007 99.4531C132.86 99.4504 132.733 99.3977 132.628 99.295C132.524 99.1923 132.474 99.0702 132.477 98.9287C132.479 98.7872 132.534 98.6671 132.641 98.5682C132.75 98.4694 132.878 98.4214 133.026 98.4241C133.174 98.4268 133.3 98.4795 133.403 98.5822C133.508 98.6849 133.56 98.807 133.557 98.9485C133.555 99.09 133.499 99.2101 133.39 99.3089C133.283 99.4078 133.155 99.4558 133.007 99.4531ZM135.478 102.291L135.424 105.262L134.665 105.248L134.755 100.309L135.489 100.322L135.474 101.094L135.539 101.095C135.659 100.846 135.839 100.648 136.077 100.5C136.316 100.35 136.622 100.279 136.995 100.285C137.329 100.291 137.62 100.365 137.869 100.507C138.117 100.647 138.308 100.856 138.443 101.135C138.577 101.412 138.64 101.761 138.633 102.181L138.575 105.32L137.816 105.306L137.873 102.219C137.88 101.831 137.785 101.526 137.587 101.306C137.39 101.084 137.115 100.97 136.763 100.963C136.521 100.959 136.304 101.007 136.111 101.109C135.92 101.21 135.769 101.361 135.656 101.56C135.543 101.76 135.483 102.003 135.478 102.291ZM143.531 101.576L142.845 101.757C142.805 101.642 142.743 101.531 142.662 101.422C142.582 101.311 142.472 101.219 142.332 101.146C142.192 101.072 142.012 101.034 141.791 101.029C141.489 101.024 141.235 101.089 141.031 101.225C140.829 101.358 140.727 101.531 140.723 101.743C140.719 101.932 140.785 102.082 140.92 102.194C141.055 102.306 141.268 102.401 141.558 102.479L142.288 102.673C142.728 102.788 143.054 102.958 143.266 103.183C143.479 103.405 143.582 103.689 143.576 104.034C143.571 104.317 143.484 104.569 143.317 104.789C143.153 105.009 142.924 105.181 142.632 105.304C142.341 105.427 142.003 105.485 141.619 105.478C141.115 105.469 140.7 105.352 140.374 105.127C140.048 104.903 139.845 104.579 139.765 104.158L140.488 103.991C140.552 104.258 140.678 104.46 140.867 104.596C141.057 104.732 141.308 104.804 141.619 104.809C141.972 104.816 142.255 104.746 142.465 104.6C142.678 104.451 142.786 104.271 142.79 104.059C142.794 103.887 142.736 103.742 142.618 103.624C142.5 103.504 142.318 103.413 142.07 103.351L141.25 103.143C140.8 103.027 140.471 102.855 140.263 102.626C140.057 102.395 139.957 102.109 139.963 101.768C139.968 101.489 140.051 101.244 140.211 101.033C140.374 100.821 140.592 100.657 140.867 100.54C141.144 100.423 141.456 100.367 141.803 100.373C142.292 100.382 142.673 100.497 142.948 100.716C143.225 100.936 143.419 101.222 143.531 101.576ZM146.698 105.571C146.252 105.563 145.862 105.45 145.53 105.232C145.199 105.013 144.943 104.711 144.761 104.326C144.582 103.941 144.497 103.494 144.506 102.984C144.516 102.469 144.617 102.022 144.811 101.641C145.006 101.261 145.273 100.968 145.612 100.762C145.952 100.556 146.345 100.457 146.791 100.465C147.237 100.473 147.625 100.586 147.956 100.805C148.288 101.023 148.545 101.326 148.724 101.713C148.906 102.1 148.992 102.551 148.982 103.066C148.973 103.576 148.87 104.02 148.675 104.398C148.481 104.776 148.214 105.068 147.874 105.275C147.536 105.481 147.143 105.58 146.698 105.571ZM146.71 104.89C147.049 104.896 147.329 104.814 147.551 104.645C147.773 104.475 147.939 104.25 148.049 103.969C148.159 103.687 148.217 103.382 148.223 103.052C148.229 102.722 148.183 102.413 148.083 102.126C147.983 101.839 147.825 101.605 147.61 101.426C147.394 101.246 147.117 101.153 146.779 101.147C146.44 101.14 146.16 101.223 145.938 101.395C145.716 101.567 145.55 101.794 145.439 102.077C145.329 102.361 145.271 102.667 145.265 102.997C145.259 103.328 145.306 103.635 145.406 103.92C145.506 104.205 145.663 104.436 145.879 104.614C146.094 104.792 146.371 104.883 146.71 104.89ZM150.096 105.531L150.186 100.592L150.92 100.605L150.905 101.377L150.97 101.378C151.078 101.116 151.247 100.914 151.479 100.773C151.712 100.629 151.988 100.56 152.31 100.566C152.636 100.572 152.906 100.651 153.119 100.803C153.335 100.953 153.502 101.161 153.62 101.426L153.671 101.427C153.802 101.175 153.996 100.976 154.251 100.83C154.507 100.683 154.812 100.612 155.165 100.618C155.607 100.627 155.966 100.771 156.242 101.053C156.517 101.333 156.65 101.763 156.639 102.344L156.579 105.65L155.82 105.636L155.88 102.33C155.887 101.966 155.792 101.703 155.596 101.543C155.399 101.383 155.166 101.3 154.896 101.295C154.548 101.289 154.277 101.389 154.083 101.596C153.888 101.8 153.788 102.062 153.782 102.382L153.723 105.597L152.951 105.583L153.013 102.2C153.019 101.919 152.932 101.692 152.753 101.517C152.574 101.34 152.34 101.249 152.053 101.243C151.856 101.24 151.671 101.289 151.497 101.391C151.326 101.493 151.186 101.636 151.077 101.821C150.971 102.003 150.916 102.215 150.911 102.458L150.855 105.545L150.096 105.531ZM158.78 102.718L158.725 105.689L157.966 105.675L158.057 100.736L158.79 100.749L158.776 101.521L158.84 101.522C158.96 101.273 159.14 101.075 159.379 100.927C159.617 100.777 159.923 100.706 160.296 100.713C160.63 100.719 160.922 100.793 161.17 100.934C161.418 101.074 161.61 101.283 161.744 101.563C161.878 101.84 161.942 102.188 161.934 102.608L161.876 105.747L161.118 105.733L161.174 102.646C161.181 102.258 161.086 101.954 160.889 101.733C160.691 101.511 160.416 101.397 160.065 101.39C159.823 101.386 159.605 101.434 159.412 101.536C159.222 101.637 159.07 101.788 158.957 101.988C158.844 102.187 158.785 102.43 158.78 102.718ZM163.263 105.772L163.354 100.833L164.113 100.847L164.022 105.786L163.263 105.772ZM163.755 100.017C163.607 100.014 163.48 99.9613 163.375 99.8586C163.272 99.7559 163.221 99.6339 163.224 99.4924C163.227 99.3509 163.281 99.2307 163.388 99.1319C163.497 99.0331 163.626 98.985 163.774 98.9878C163.922 98.9905 164.047 99.0432 164.15 99.1459C164.256 99.2486 164.307 99.3707 164.304 99.5122C164.302 99.6537 164.246 99.7738 164.137 99.8726C164.03 99.9714 163.903 100.019 163.755 100.017ZM166.863 105.954C166.55 105.948 166.267 105.884 166.015 105.761C165.762 105.637 165.562 105.46 165.416 105.233C165.27 105.003 165.2 104.727 165.206 104.405C165.211 104.122 165.271 103.894 165.386 103.72C165.501 103.544 165.652 103.408 165.841 103.31C166.029 103.213 166.236 103.142 166.462 103.097C166.69 103.049 166.919 103.013 167.149 102.987C167.45 102.954 167.694 102.929 167.881 102.913C168.07 102.896 168.208 102.863 168.295 102.815C168.383 102.767 168.429 102.682 168.431 102.56L168.432 102.534C168.437 102.217 168.355 101.969 168.185 101.79C168.016 101.611 167.758 101.518 167.408 101.512C167.046 101.505 166.76 101.579 166.552 101.734C166.343 101.889 166.195 102.056 166.108 102.234L165.393 101.964C165.527 101.666 165.702 101.436 165.92 101.272C166.14 101.107 166.378 100.993 166.634 100.932C166.892 100.868 167.146 100.838 167.395 100.843C167.553 100.846 167.735 100.868 167.94 100.911C168.147 100.951 168.347 101.031 168.537 101.15C168.73 101.269 168.889 101.447 169.013 101.683C169.138 101.919 169.196 102.233 169.189 102.625L169.129 105.88L168.37 105.866L168.383 105.197L168.344 105.196C168.291 105.302 168.203 105.416 168.081 105.536C167.958 105.656 167.797 105.757 167.596 105.839C167.395 105.921 167.151 105.959 166.863 105.954ZM166.992 105.274C167.292 105.28 167.546 105.226 167.754 105.111C167.964 104.997 168.123 104.848 168.232 104.663C168.342 104.479 168.399 104.284 168.403 104.078L168.416 103.383C168.383 103.421 168.312 103.455 168.202 103.486C168.094 103.514 167.969 103.538 167.827 103.559C167.688 103.578 167.551 103.595 167.418 103.609C167.287 103.622 167.18 103.633 167.099 103.642C166.901 103.664 166.716 103.703 166.543 103.757C166.373 103.81 166.234 103.892 166.127 104.004C166.022 104.114 165.968 104.265 165.964 104.458C165.96 104.721 166.053 104.923 166.246 105.061C166.441 105.198 166.689 105.269 166.992 105.274ZM172.687 106.035C172.417 106.026 172.147 105.969 171.879 105.866C171.611 105.762 171.367 105.592 171.149 105.354C170.93 105.114 170.757 104.792 170.629 104.389C170.501 103.983 170.443 103.476 170.454 102.867C170.465 102.284 170.529 101.769 170.647 101.32C170.764 100.87 170.93 100.492 171.144 100.188C171.357 99.8806 171.612 99.6494 171.909 99.494C172.208 99.3386 172.543 99.2643 172.914 99.2711C173.282 99.2779 173.609 99.3579 173.894 99.511C174.18 99.6621 174.412 99.8701 174.59 100.135C174.767 100.4 174.88 100.703 174.927 101.045L174.142 101.031C174.075 100.734 173.938 100.485 173.731 100.287C173.525 100.088 173.248 99.9849 172.901 99.9786C172.39 99.9692 171.984 100.184 171.683 100.622C171.383 101.061 171.225 101.681 171.208 102.482L171.259 102.483C171.383 102.303 171.528 102.15 171.695 102.025C171.865 101.897 172.051 101.8 172.254 101.733C172.457 101.666 172.671 101.634 172.896 101.638C173.273 101.645 173.617 101.746 173.926 101.94C174.236 102.133 174.482 102.395 174.664 102.729C174.847 103.06 174.934 103.438 174.927 103.863C174.919 104.27 174.821 104.642 174.633 104.977C174.444 105.31 174.183 105.573 173.85 105.767C173.518 105.958 173.13 106.047 172.687 106.035ZM172.7 105.328C172.97 105.332 173.213 105.269 173.43 105.138C173.649 105.007 173.823 104.829 173.951 104.604C174.082 104.379 174.15 104.127 174.155 103.849C174.16 103.577 174.103 103.328 173.985 103.103C173.869 102.875 173.706 102.693 173.497 102.556C173.289 102.42 173.05 102.349 172.78 102.344C172.576 102.34 172.386 102.377 172.209 102.456C172.031 102.532 171.875 102.638 171.74 102.775C171.606 102.912 171.5 103.07 171.422 103.249C171.344 103.425 171.303 103.612 171.299 103.809C171.294 104.071 171.351 104.316 171.469 104.546C171.589 104.775 171.755 104.962 171.967 105.105C172.181 105.248 172.425 105.322 172.7 105.328ZM176.023 104.655L176.035 103.999L179.013 99.473L179.489 99.4817L179.47 100.498L179.149 100.492L176.898 103.912L176.898 103.963L180.795 104.035L180.782 104.742L176.023 104.655ZM179.098 106.062L179.126 104.512L179.132 104.207L179.219 99.4768L179.978 99.4907L179.857 106.076L179.098 106.062Z" fill="white"/>
<path d="M233.998 82.5938L303.748 77.5938L276.748 112.594L227.783 121.766L207.283 124.016L187.783 119.016L185.783 109.766L218.283 106.016L233.998 82.5938Z" fill="#0084E7" stroke="black" stroke-width="1.5" stroke-miterlimit="10" stroke-linecap="round"/>
<path d="M229.129 123.836L229.379 119.836L231.879 117.336L235.129 116.336L235.379 120.336L236.879 113.586L241.379 113.086L241.879 117.086L243.379 111.586L246.879 111.836L247.379 117.836L254.879 117.086L253.379 119.336L238.379 125.836L223.379 128.086L206.379 124.086L228.629 122.086L229.129 123.836Z" fill="white" stroke="black" stroke-width="1.5" stroke-miterlimit="10" stroke-linecap="round"/>
<path d="M207.201 123.072L234.201 82.3223L305.201 78.0723L276.629 113.086L207.129 123.086L218.129 105.086L207.201 123.072Z" fill="#0000A1" stroke="black" stroke-width="1.5" stroke-miterlimit="10" stroke-linecap="round"/>
<path d="M203.295 93.0488L206.295 107.549L185.795 109.549L185.295 94.2988L203.295 93.0488Z" fill="white" stroke="black" stroke-width="1.5" stroke-miterlimit="10" stroke-linecap="round"/>
<path d="M118.251 68.6621L96.251 65.6621L83.001 40.9121L78.501 31.9121L76.001 27.9121L75.251 24.9121H78.751L79.251 22.6621L81.751 22.1621L78.751 16.1621L80.751 11.1621L90.001 24.9121L96.001 20.6621L98.001 22.4121L91.251 32.6621L106.751 56.1621L118.501 57.4121L118.251 68.6621Z" fill="white" stroke="black" stroke-width="1.5" stroke-miterlimit="10" stroke-linecap="round"/>
<path d="M79.751 22.6621L83.001 22.1621L87.751 28.9121L85.501 32.4121L79.001 25.1621L84.251 32.1621L78.751 33.1621" stroke="black" stroke-width="1.5" stroke-miterlimit="10" stroke-linecap="round"/>
<path d="M157.316 124.093L187.566 119.093L187.066 117.406L210.316 172.825L237.566 227.325L236.816 237.075L222.316 241.325L221.816 243.825L212.066 242.075L197.316 217.313L186.316 182.063L149.066 146.563L119.374 168.43L108.624 185.68L122.624 223.68L104.124 229.43L94.124 222.93L86.374 221.68L85.124 199.607L78.124 173.107L93.624 146.107L115.624 121.607L157.316 124.093Z" fill="#592D00" stroke="black" stroke-width="1.5" stroke-miterlimit="10" stroke-linecap="round"/>
<path d="M95.5298 223.438L103.03 230.938L96.5298 233.188L77.0298 237.438L71.0298 234.438L70.7798 229.188L76.2798 227.438L87.2798 221.688L95.5298 223.438Z" fill="#595959" stroke="black" stroke-width="1.5" stroke-miterlimit="10" stroke-linecap="round"/>
<path d="M213.598 241.688L221.348 243.688L223.098 240.688L237.098 236.438L246.848 243.938L253.348 246.688L252.848 251.688L237.848 251.188L230.598 251.438L222.098 246.188L213.598 244.188V241.688Z" fill="#595959" stroke="black" stroke-width="1.5" stroke-miterlimit="10" stroke-linecap="round"/>
<rect x="126" y="-18.3594" width="78" height="78" transform="rotate(-8.58248 126 -18.3594)" fill="url(#pattern0_1577_25)"/>
</g>
<defs>
<pattern id="pattern0_1577_25" patternContentUnits="objectBoundingBox" width="1" height="1">
<use xlink:href="#image0_1577_25" transform="scale(0.000976562)"/>
</pattern>
<clipPath id="clip0_1577_25">
<rect width="378.507" height="252.459" fill="white"/>
</clipPath>
</defs>
</svg>
